{
.appVersion = "1342";
DisplayStrings = (
"/space harvestfungoid",

glyphs = (
{
glyphname = A;
lastChange = "2020-07-01 02:40:39 +0000";
layers = (
{
background = {
paths = (
{
closed = 0;
nodes = (
"145 572 LINE",
"149 393 OFFCURVE",
"110 210 OFFCURVE",
"118 34 CURVE",
"159 353 OFFCURVE",
"258 658 OFFCURVE",
"398 658 CURVE SMOOTH",
"564 658 OFFCURVE",
"467 251 OFFCURVE",
"615 1 CURVE SMOOTH"
);
},
{
closed = 0;
nodes = (
"75 266 LINE",
"256 336 OFFCURVE",
"421 367 OFFCURVE",
"687 372 CURVE SMOOTH"
);
}
);
};
backgroundImage = {
crop = "{{0, 0}, {2004, 204}}";
imagePath = "Images/H_.glif-Regular.tif";
locked = "1";
transform = "{5.497, 0, 0, 5.497, -904, -206}";
};
layerId = "DC44E50C-9AA1-421C-802C-D4D023281425";
paths = (
{
closed = 1;
nodes = (
"648 -59 OFFCURVE",
"675 -32 OFFCURVE",
"675 1 CURVE SMOOTH",
"675 12 OFFCURVE",
"672 23 OFFCURVE",
"666 32 CURVE SMOOTH",
"605 136 OFFCURVE",
"590 271 OFFCURVE",
"576 397 CURVE SMOOTH",
"553 611 OFFCURVE",
"522 718 OFFCURVE",
"398 718 CURVE SMOOTH",
"316 718 OFFCURVE",
"244 653 OFFCURVE",
"186 536 CURVE",
"213 536 LINE",
"208 575 OFFCURVE",
"206 612 OFFCURVE",
"147 612 CURVE SMOOTH",
"114 612 OFFCURVE",
"87 585 OFFCURVE",
"87 552 CURVE SMOOTH",
"87 385 OFFCURVE",
"57 245 OFFCURVE",
"57 51 CURVE SMOOTH",
"57 6 OFFCURVE",
"87 -8 OFFCURVE",
"125 -8 CURVE SMOOTH",
"161 -9 OFFCURVE",
"179 24 OFFCURVE",
"182 48 CURVE SMOOTH",
"232 372 OFFCURVE",
"324 598 OFFCURVE",
"398 598 CURVE SMOOTH",
"423 598 OFFCURVE",
"438 559 OFFCURVE",
"457 384 CURVE SMOOTH",
"471 258 OFFCURVE",
"489 98 OFFCURVE",
"563 -29 CURVE SMOOTH",
"573 -47 OFFCURVE",
"593 -59 OFFCURVE",
"615 -59 CURVE SMOOTH"
);
},
{
closed = 1;
nodes = (
"83 206 OFFCURVE",
"91 208 OFFCURVE",
"98 211 CURVE SMOOTH",
"268 276 OFFCURVE",
"413 308 OFFCURVE",
"648 312 CURVE SMOOTH",
"681 313 OFFCURVE",
"707 339 OFFCURVE",
"707 372 CURVE SMOOTH",
"707 405 OFFCURVE",
"680 432 OFFCURVE",
"647 432 CURVE SMOOTH",
"647 432 OFFCURVE",
"646 432 OFFCURVE",
"646 432 CURVE SMOOTH",
"399 427 OFFCURVE",
"236 392 OFFCURVE",
"55 322 CURVE SMOOTH",
"32 314 OFFCURVE",
"15 292 OFFCURVE",
"15 266 CURVE SMOOTH",
"15 233 OFFCURVE",
"42 206 OFFCURVE",
"75 206 CURVE SMOOTH"
);
}
);
width = 720;
}
);
unicode = 0041;
},
{
glyphname = B;
lastChange = "2020-07-02 22:30:41 +0000";
layers = (
{
background = {
paths = (
{
closed = 0;
nodes = (
"173 662 LINE",
"150 517 OFFCURVE",
"146 430 OFFCURVE",
"146 331 CURVE SMOOTH",
"146 179 OFFCURVE",
"201 55 OFFCURVE",
"268 55 CURVE SMOOTH",
"336 55 OFFCURVE",
"439 143 OFFCURVE",
"439 206 CURVE SMOOTH",
"439 279 OFFCURVE",
"352 335 OFFCURVE",
"197 335 CURVE",
"304 335 OFFCURVE",
"497 448 OFFCURVE",
"497 521 CURVE SMOOTH",
"497 631 OFFCURVE",
"277 700 OFFCURVE",
"130 665 CURVE"
);
}
);
};
backgroundImage = {
crop = "{{0, 0}, {1775, 229}}";
imagePath = "Images/B_.glif-Regular.tif";
locked = "1";
transform = "{5.22013, 0, 0, 5.22013, -104, -300}";
};
layerId = "DC44E50C-9AA1-421C-802C-D4D023281425";
paths = (
{
closed = 1;
nodes = (
"206 421 OFFCURVE",
"209 459 OFFCURVE",
"225 566 CURVE SMOOTH",
"231 602 OFFCURVE",
"202 635 OFFCURVE",
"165 635 CURVE SMOOTH",
"135 635 OFFCURVE",
"110 613 OFFCURVE",
"106 583 CURVE SMOOTH",
"89 465 OFFCURVE",
"86 425 OFFCURVE",
"86 331 CURVE SMOOTH",
"86 154.311 OFFCURVE",
"153.721 -5 OFFCURVE",
"268 -5 CURVE SMOOTH",
"369.581 -5 OFFCURVE",
"499 109.709 OFFCURVE",
"499 206 CURVE SMOOTH",
"499 265.898 OFFCURVE",
"467.002 313.113 OFFCURVE",
"401 336 CURVE",
"493.97 394.354 OFFCURVE",
"557 461.329 OFFCURVE",
"557 521 CURVE SMOOTH",
"557 646.324 OFFCURVE",
"391.677 734.16 OFFCURVE",
"213.71 734.16 CURVE SMOOTH",
"180.172 734.16 OFFCURVE",
"146.702 730.523 OFFCURVE",
"111 723 CURVE SMOOTH",
"84 718 OFFCURVE",
"64 694 OFFCURVE",
"64 665 CURVE SMOOTH",
"64 632 OFFCURVE",
"91 605 OFFCURVE",
"124 605 CURVE SMOOTH",
"140 605 OFFCURVE",
"178 614 OFFCURVE",
"213.71 614.16 CURVE SMOOTH",
"326.039 614.16 OFFCURVE",
"437 562.206 OFFCURVE",
"437 521 CURVE SMOOTH",
"437 477 OFFCURVE",
"272 392 OFFCURVE",
"194 395 CURVE SMOOTH",
"151 395 OFFCURVE",
"131 368 OFFCURVE",
"131 336 CURVE SMOOTH",
"131 296 OFFCURVE",
"157 275 OFFCURVE",
"194 276 CURVE SMOOTH",
"302 278 OFFCURVE",
"379 243 OFFCURVE",
"379 206 CURVE SMOOTH",
"379 179 OFFCURVE",
"304 115 OFFCURVE",
"268 115 CURVE SMOOTH",
"246 115 OFFCURVE",
"202 236 OFFCURVE",
"206 332 CURVE SMOOTH"
);
}
);
width = 600;
}
);
unicode = 0042;
},
{
glyphname = C;
lastChange = "2020-07-02 22:30:58 +0000";
layers = (
{
background = {
paths = (
{
closed = 0;
nodes = (
"333 527 LINE",
"330 552 OFFCURVE",
"312 569 OFFCURVE",
"288 569 CURVE SMOOTH",
"211 569 OFFCURVE",
"146 440 OFFCURVE",
"146 337 CURVE SMOOTH",
"146 235 OFFCURVE",
"209 172 OFFCURVE",
"293 172 CURVE SMOOTH",
"362 172 OFFCURVE",
"408 185 OFFCURVE",
"446 222 CURVE SMOOTH"
);
}
);
};
backgroundImage = {
crop = "{{0, 0}, {1775, 229}}";
imagePath = "Images/B_.glif-Regular.tif";
locked = "1";
transform = "{5.22, 0, 0, 5.22, -682, -300}";
};
layerId = "DC44E50C-9AA1-421C-802C-D4D023281425";
paths = (
{
closed = 1;
nodes = (
"379.797 112 OFFCURVE",
"439.879 132.296 OFFCURVE",
"487.857 179.012 CURVE SMOOTH",
"499.049 189.911 OFFCURVE",
"506 205.144 OFFCURVE",
"506 222 CURVE SMOOTH",
"506 255.137 OFFCURVE",
"479.137 282 OFFCURVE",
"446 282 CURVE SMOOTH",
"429.69 282 OFFCURVE",
"414.9 275.492 OFFCURVE",
"404.085 264.931 CURVE SMOOTH",
"379.567 241.09 OFFCURVE",
"350.921 232 OFFCURVE",
"293 232 CURVE SMOOTH",
"239.939 232 OFFCURVE",
"206 271.294 OFFCURVE",
"206 337 CURVE SMOOTH",
"206 405.371 OFFCURVE",
"246.168 487.98 OFFCURVE",
"276.931 505.595 CURVE",
"285.551 483.028 OFFCURVE",
"307.404 467 OFFCURVE",
"333 467 CURVE SMOOTH",
"366.137 467 OFFCURVE",
"393 493.863 OFFCURVE",
"393 527 CURVE SMOOTH",
"393 529.862 OFFCURVE",
"392.799 532.678 OFFCURVE",
"392.412 535.433 CURVE SMOOTH",
"385.319 589.603 OFFCURVE",
"342.51 629 OFFCURVE",
"288 629 CURVE SMOOTH",
"177.303 629 OFFCURVE",
"86 480.61 OFFCURVE",
"86 337 CURVE SMOOTH",
"86 205.854 OFFCURVE",
"172.3 112 OFFCURVE",
"293 112 CURVE SMOOTH"
);
}
);
width = 600;
}
);
unicode = 0043;
},
{
glyphname = D;
lastChange = "2020-07-01 02:26:41 +0000";
layers = (
{
background = {
paths = (
{
closed = 0;
nodes = (
"93 551 LINE",
"185 617 OFFCURVE",
"294 634 OFFCURVE",
"360 634 CURVE SMOOTH",
"482 634 OFFCURVE",
"559 594 OFFCURVE",
"559 509 CURVE SMOOTH",
"559 239 OFFCURVE",
"323 49 OFFCURVE",
"247 49 CURVE SMOOTH",
"200 49 OFFCURVE",
"188 92 OFFCURVE",
"188 138 CURVE SMOOTH",
"188 248 OFFCURVE",
"194 372 OFFCURVE",
"211 559 CURVE SMOOTH"
);
}
);
};
backgroundImage = {
crop = "{{0, 0}, {2004, 204}}";
imagePath = "Images/H_.glif-Regular.tif";
locked = "1";
transform = "{5.497, 0, 0, 5.497, -10287, -208}";
};
layerId = "DC44E50C-9AA1-421C-802C-D4D023281425";
paths = (
{
closed = 1;
nodes = (
"418.32 -18 OFFCURVE",
"631 283.059 OFFCURVE",
"631 520 CURVE SMOOTH",
"631 643.802 OFFCURVE",
"525.86 709 OFFCURVE",
"365 709 CURVE SMOOTH",
"253.611 709 OFFCURVE",
"137.754 673.03 OFFCURVE",
"53.43 612.046 CURVE SMOOTH",
"38.046 601.183 OFFCURVE",
"28 583.265 OFFCURVE",
"28 563 CURVE SMOOTH",
"28 529.863 OFFCURVE",
"54.863 503 OFFCURVE",
"88 503 CURVE SMOOTH",
"148 503 OFFCURVE",
"191 589 OFFCURVE",
"365 589 CURVE SMOOTH",
"466.411 589 OFFCURVE",
"511 563.728 OFFCURVE",
"511 520 CURVE SMOOTH",
"511 267.746 OFFCURVE",
"304.869 102 OFFCURVE",
"247 102 CURVE SMOOTH",
"247.66 102 OFFCURVE",
"246 132.846 OFFCURVE",
"246 134 CURVE SMOOTH",
"246 333 OFFCURVE",
"268 517 OFFCURVE",
"268 551 CURVE SMOOTH",
"268 584 OFFCURVE",
"241 611 OFFCURVE",
"208 611 CURVE SMOOTH",
"176 611 OFFCURVE",
"150 586 OFFCURVE",
"148 555 CURVE SMOOTH",
"132 369 OFFCURVE",
"126 244 OFFCURVE",
"126 134 CURVE SMOOTH",
"126 44.799 OFFCURVE",
"168.442 -18 OFFCURVE",
"247 -18 CURVE SMOOTH"
);
}
);
width = 600;
}
);
unicode = 0044;
},
{
glyphname = E;
lastChange = "2020-07-01 02:41:44 +0000";
layers = (
{
background = {
paths = (
{
closed = 0;
nodes = (
"189 587 LINE",
"154 500 OFFCURVE",
"123 387 OFFCURVE",
"123 291 CURVE SMOOTH",
"123 166 OFFCURVE",
"202 53 OFFCURVE",
"339 53 CURVE SMOOTH",
"462 53 OFFCURVE",
"547 68 OFFCURVE",
"614 84 CURVE SMOOTH"
);
},
{
closed = 0;
nodes = (
"115 587 LINE",
"262 626 OFFCURVE",
"391 651 OFFCURVE",
"571 659 CURVE SMOOTH"
);
},
{
closed = 0;
nodes = (
"149 312 LINE",
"226 332 OFFCURVE",
"365 348 OFFCURVE",
"478 352 CURVE SMOOTH"
);
}
);
};
backgroundImage = {
crop = "{{0, 0}, {2004, 204}}";
imagePath = "Images/H_.glif-Regular.tif";
transform = "{5.497, 0, 0, 5.497, -3357, -206}";
};
layerId = "DC44E50C-9AA1-421C-802C-D4D023281425";
paths = (
{
closed = 1;
nodes = (
"466 -7 OFFCURVE",
"558 9 OFFCURVE",
"627 25 CURVE SMOOTH",
"654 31 OFFCURVE",
"674 55 OFFCURVE",
"674 84 CURVE SMOOTH",
"674 117 OFFCURVE",
"647 144 OFFCURVE",
"614 144 CURVE SMOOTH",
"589 144 OFFCURVE",
"478 113 OFFCURVE",
"339 113 CURVE SMOOTH",
"256 113 OFFCURVE",
"197 171 OFFCURVE",
"185 259 CURVE",
"258 275 OFFCURVE",
"376 288 OFFCURVE",
"480 292 CURVE SMOOTH",
"512 293 OFFCURVE",
"538 319 OFFCURVE",
"538 352 CURVE SMOOTH",
"538 385 OFFCURVE",
"511 412 OFFCURVE",
"478 412 CURVE SMOOTH",
"477 412 OFFCURVE",
"476 412 OFFCURVE",
"475 412 CURVE SMOOTH",
"379 409 OFFCURVE",
"271 397 OFFCURVE",
"192 383 CURVE",
"201 437 OFFCURVE",
"218 497 OFFCURVE",
"241 556 CURVE",
"355 581 OFFCURVE",
"454 594 OFFCURVE",
"573 599 CURVE SMOOTH",
"605 600 OFFCURVE",
"631 627 OFFCURVE",
"631 659 CURVE SMOOTH",
"631 692 OFFCURVE",
"604 719 OFFCURVE",
"571 719 CURVE SMOOTH",
"440 719 OFFCURVE",
"248 684 OFFCURVE",
"101 645 CURVE SMOOTH",
"75 639 OFFCURVE",
"55 615 OFFCURVE",
"55 587 CURVE SMOOTH",
"55 557 OFFCURVE",
"76 533 OFFCURVE",
"104 528 CURVE",
"81 452 OFFCURVE",
"63 366 OFFCURVE",
"63 291 CURVE SMOOTH",
"63 120 OFFCURVE",
"180 -7 OFFCURVE",
"339 -7 CURVE SMOOTH"
);
}
);
width = 710;
}
);
unicode = 0045;
},
{
glyphname = F;
lastChange = "2020-07-01 02:43:09 +0000";
layers = (
{
background = {
paths = (
{
closed = 0;
nodes = (
"158 603 LINE",
"131 259 OFFCURVE",
"134 138 OFFCURVE",
"208 23 CURVE SMOOTH"
);
},
{
closed = 0;
nodes = (
"80 591 LINE",
"175 616 OFFCURVE",
"347 643 OFFCURVE",
"473 640 CURVE SMOOTH"
);
},
{
closed = 0;
nodes = (
"165 256 LINE",
"261 248 OFFCURVE",
"377 255 OFFCURVE",
"495 276 CURVE SMOOTH"
);
}
);
};
backgroundImage = {
crop = "{{0, 0}, {2004, 204}}";
imagePath = "Images/H_.glif-Regular.tif";
transform = "{5.497, 0, 0, 5.497, -5478, -206}";
};
layerId = "DC44E50C-9AA1-421C-802C-D4D023281425";
paths = (
{
closed = 1;
nodes = (
"201 340 OFFCURVE",
"205 426 OFFCURVE",
"216 580 CURVE",
"94 554 LINE",
"86 443 OFFCURVE",
"82 369 OFFCURVE",
"82 307 CURVE SMOOTH",
"82 165 OFFCURVE",
"103 75 OFFCURVE",
"157 -9 CURVE SMOOTH",
"168 -26 OFFCURVE",
"186 -37 OFFCURVE",
"208 -37 CURVE SMOOTH",
"241 -37 OFFCURVE",
"268 -10 OFFCURVE",
"268 23 CURVE SMOOTH",
"268 35 OFFCURVE",
"264 47 OFFCURVE",
"258 56 CURVE SMOOTH",
"221 114 OFFCURVE",
"206 171 OFFCURVE",
"203 270 CURVE SMOOTH"
);
},
{
closed = 1;
nodes = (
"264 580 OFFCURVE",
"473 580 CURVE SMOOTH",
"506 580 OFFCURVE",
"533 607 OFFCURVE",
"533 640 CURVE SMOOTH",
"533 673 OFFCURVE",
"507 699 OFFCURVE",
"474 700 CURVE SMOOTH",
"343 703 OFFCURVE",
"164 675 OFFCURVE",
"66 649 CURVE SMOOTH",
"40 643 OFFCURVE",
"20 619 OFFCURVE",
"20 591 CURVE SMOOTH",
"20 558 OFFCURVE",
"47 531 OFFCURVE",
"80 531 CURVE SMOOTH",
"83 531 OFFCURVE"
);
},
{
closed = 1;
nodes = (
"166 193 OFFCURVE",
"224 193 CURVE SMOOTH",
"303 193 OFFCURVE",
"390 198 OFFCURVE",
"474 210 CURVE SMOOTH",
"503 214 OFFCURVE",
"525 239 OFFCURVE",
"525 269 CURVE SMOOTH",
"525 302 OFFCURVE",
"498 329 OFFCURVE",
"465 329 CURVE SMOOTH",
"409 329 OFFCURVE",
"329 313 OFFCURVE",
"218 313 CURVE SMOOTH",
"182 313 OFFCURVE",
"153 294 OFFCURVE",
"153 252 CURVE",
"153 219 OFFCURVE"
);
}
);
width = 571;
}
);
unicode = 0046;
},
{
glyphname = G;
lastChange = "2020-07-01 02:44:09 +0000";
layers = (
{
background = {
paths = (
{
closed = 0;
nodes = (
"381 525 LINE",
"418 592 OFFCURVE",
"412 640 OFFCURVE",
"385 640 CURVE SMOOTH",
"299 640 OFFCURVE",
"101 396 OFFCURVE",
"101 236 CURVE SMOOTH",
"101 142 OFFCURVE",
"164 58 OFFCURVE",
"275 58 CURVE SMOOTH",
"381 58 OFFCURVE",
"548 166 OFFCURVE",
"602 337 CURVE",
"606 219 OFFCURVE",
"676 48 OFFCURVE",
"750 -59 CURVE SMOOTH"
);
},
{
closed = 0;
nodes = (
"275 58 LINE SMOOTH"
);
},
{
closed = 0;
nodes = (
"340 308 LINE",
"506 358 OFFCURVE",
"681 384 OFFCURVE",
"931 395 CURVE SMOOTH"
);
}
);
};
backgroundImage = {
crop = "{{0, 0}, {2004, 204}}";
imagePath = "Images/H_.glif-Regular.tif";
transform = "{5.497, 0, 0, 5.497, -7718, -205}";
};
layerId = "DC44E50C-9AA1-421C-802C-D4D023281425";
paths = (
{
closed = 1;
nodes = (
"783 -119 OFFCURVE",
"810 -92 OFFCURVE",
"810 -59 CURVE SMOOTH",
"810 -46 OFFCURVE",
"806 -34 OFFCURVE",
"799 -24 CURVE SMOOTH",
"734 70 OFFCURVE",
"681 200 OFFCURVE",
"666 297 CURVE SMOOTH",
"661 329 OFFCURVE",
"643 348 OFFCURVE",
"597 348 CURVE SMOOTH",
"562 348 OFFCURVE",
"541 338 OFFCURVE",
"524 306 CURVE SMOOTH",
"462 184 OFFCURVE",
"361 118 OFFCURVE",
"275 118 CURVE SMOOTH",
"206 118 OFFCURVE",
"161 165 OFFCURVE",
"161 236 CURVE SMOOTH",
"161 320 OFFCURVE",
"267 495 OFFCURVE",
"347 560 CURVE",
"337 576 LINE",
"307 531 OFFCURVE",
"321 485 OFFCURVE",
"373 485 CURVE SMOOTH",
"432 485 OFFCURVE",
"467 556 OFFCURVE",
"467 607 CURVE SMOOTH",
"467 658 OFFCURVE",
"436 700 OFFCURVE",
"385 700 CURVE SMOOTH",
"251 700 OFFCURVE",
"41 414 OFFCURVE",
"41 236 CURVE SMOOTH",
"41 99 OFFCURVE",
"140 -2 OFFCURVE",
"275 -2 CURVE SMOOTH",
"388 -2 OFFCURVE",
"515 79 OFFCURVE",
"595 192 CURVE",
"566 194 LINE",
"595 96 OFFCURVE",
"643 -10 OFFCURVE",
"700 -92 CURVE SMOOTH",
"711 -108 OFFCURVE",
"729 -119 OFFCURVE",
"750 -119 CURVE SMOOTH"
);
},
{
closed = 1;
nodes = (
"347 248 OFFCURVE",
"376 256 OFFCURVE",
"421 270 CURVE SMOOTH",
"520 300 OFFCURVE",
"687 335 OFFCURVE",
"933 335 CURVE SMOOTH",
"965 335 OFFCURVE",
"991 363 OFFCURVE",
"991 395 CURVE SMOOTH",
"991 429 OFFCURVE",
"962 455 OFFCURVE",
"928 455 CURVE SMOOTH",
"676 454 OFFCURVE",
"495 417 OFFCURVE",
"324 366 CURVE SMOOTH",
"288 356 OFFCURVE",
"276 327 OFFCURVE",
"276 300 CURVE SMOOTH",
"276 270 OFFCURVE",
"301 248 OFFCURVE",
"333 248 CURVE SMOOTH"
);
}
);
width = 1000;
}
);
unicode = 0047;
},
{
glyphname = H;
lastChange = "2020-07-01 02:34:57 +0000";
layers = (
{
associatedMasterId = "DC44E50C-9AA1-421C-802C-D4D023281425";
background = {
paths = (
{
closed = 0;
nodes = (
"100 680 LINE",
"98 535 OFFCURVE",
"130 269 OFFCURVE",
"140 38 CURVE SMOOTH"
);
},
{
closed = 0;
nodes = (
"473 649 LINE",
"523 494 OFFCURVE",
"463 268 OFFCURVE",
"592 -51 CURVE SMOOTH"
);
},
{
closed = 0;
nodes = (
"100 680 LINE",
"98 535 OFFCURVE",
"130 269 OFFCURVE",
"140 38 CURVE SMOOTH"
);
},
{
closed = 0;
nodes = (
"473 649 LINE",
"523 494 OFFCURVE",
"463 268 OFFCURVE",
"592 -51 CURVE SMOOTH"
);
},
{
closed = 0;
nodes = (
"83 352 LINE",
"185 383 OFFCURVE",
"333 415 OFFCURVE",
"538 398 CURVE SMOOTH"
);
}
);
};
backgroundImage = {
crop = "{{0, 0}, {2004, 204}}";
imagePath = "Images/H_.glif-Regular.tif";
locked = "1";
transform = "{5.4968, 0, 0, 5.4968, -122, -206}";
};
layerId = "564F48AE-F8E7-4E88-87F8-E4F82584D19D";
name = spacer;
paths = (
{
closed = 1;
nodes = (
"532 -180 LINE SMOOTH",
"571 -180 OFFCURVE",
"592 -159 OFFCURVE",
"592 -120 CURVE SMOOTH",
"592 800 LINE SMOOTH",
"592 839 OFFCURVE",
"571 860 OFFCURVE",
"532 860 CURVE SMOOTH",
"120 860 LINE SMOOTH",
"81 860 OFFCURVE",
"60 839 OFFCURVE",
"60 800 CURVE SMOOTH",
"60 -120 LINE SMOOTH",
"60 -159 OFFCURVE",
"81 -180 OFFCURVE",
"120 -180 CURVE SMOOTH"
);
},
{
closed = 1;
nodes = (
"180 740 LINE",
"472 740 LINE",
"472 -60 LINE",
"180 -60 LINE"
);
}
);
width = 652;
},
{
background = {
paths = (
{
closed = 0;
nodes = (
"122 680 LINE",
"120 535 OFFCURVE",
"152 269 OFFCURVE",
"162 38 CURVE SMOOTH"
);
},
{
closed = 0;
nodes = (
"495 649 LINE",
"545 494 OFFCURVE",
"485 268 OFFCURVE",
"614 -51 CURVE SMOOTH"
);
},
{
closed = 0;
nodes = (
"122 680 LINE",
"120 535 OFFCURVE",
"152 269 OFFCURVE",
"162 38 CURVE SMOOTH"
);
},
{
closed = 0;
nodes = (
"495 649 LINE",
"545 494 OFFCURVE",
"485 268 OFFCURVE",
"614 -51 CURVE SMOOTH"
);
},
{
closed = 0;
nodes = (
"105 352 LINE",
"207 383 OFFCURVE",
"355 415 OFFCURVE",
"560 398 CURVE SMOOTH"
);
}
);
};
backgroundImage = {
crop = "{{0, 0}, {2004, 204}}";
imagePath = "Images/H_.glif-Regular.tif";
locked = "1";
transform = "{5.4968, 0, 0, 5.4968, -100, -206}";
};
layerId = "DC44E50C-9AA1-421C-802C-D4D023281425";
paths = (
{
closed = 1;
nodes = (
"608 -118 OFFCURVE",
"637 -82 OFFCURVE",
"625 -41 CURVE SMOOTH",
"572 154 OFFCURVE",
"584 305 OFFCURVE",
"593 436 CURVE",
"599 516 OFFCURVE",
"605 587 OFFCURVE",
"592 661 CURVE SMOOTH",
"588 687 OFFCURVE",
"567 711 OFFCURVE",
"532 711 CURVE SMOOTH",
"501 711 OFFCURVE",
"473 695 OFFCURVE",
"473 658 CURVE SMOOTH",
"473 603 OFFCURVE",
"478 502 OFFCURVE",
"474 445 CURVE",
"464 314 OFFCURVE",
"451 143 OFFCURVE",
"509 -73 CURVE SMOOTH",
"515 -96 OFFCURVE",
"535 -118 OFFCURVE",
"567 -118 CURVE SMOOTH"
);
},
{
closed = 1;
nodes = (
"195 -22 OFFCURVE",
"222 5 OFFCURVE",
"222 38 CURVE SMOOTH",
"222 39 OFFCURVE",
"222 40 OFFCURVE",
"222 41 CURVE SMOOTH",
"217 144 OFFCURVE",
"209 254 OFFCURVE",
"201 356 CURVE SMOOTH",
"190 485 OFFCURVE",
"181 601 OFFCURVE",
"182 679 CURVE SMOOTH",
"182 680 LINE SMOOTH",
"182 713 OFFCURVE",
"155 740 OFFCURVE",
"122 740 CURVE SMOOTH",
"89 740 OFFCURVE",
"62 714 OFFCURVE",
"62 681 CURVE SMOOTH",
"61 597 OFFCURVE",
"71 475 OFFCURVE",
"81 346 CURVE SMOOTH",
"89 244 OFFCURVE",
"98 136 OFFCURVE",
"102 36 CURVE SMOOTH",
"103 4 OFFCURVE",
"130 -22 OFFCURVE",
"162 -22 CURVE SMOOTH"
);
},
{
closed = 1;
nodes = (
"136 292 OFFCURVE",
"234 342 OFFCURVE",
"478 343 CURVE SMOOTH",
"535 343 OFFCURVE",
"546 338 OFFCURVE",
"590 338 CURVE SMOOTH",
"623 338 OFFCURVE",
"650 365 OFFCURVE",
"650 398 CURVE SMOOTH",
"650 444 OFFCURVE",
"621 463 OFFCURVE",
"487 463 CURVE SMOOTH",
"353 463 OFFCURVE",
"222 450 OFFCURVE",
"89 410 CURVE SMOOTH",
"64 403 OFFCURVE",
"45 380 OFFCURVE",
"45 352 CURVE SMOOTH",
"45 319 OFFCURVE",
"72 292 OFFCURVE",
"105 292 CURVE SMOOTH"
);
}
);
width = 695;
}
);
unicode = 0048;
},
{
glyphname = I;
lastChange = "2020-07-01 02:22:37 +0000";
layers = (
{
background = {
paths = (
{
closed = 0;
nodes = (
"91 608 LINE",
"247 632 OFFCURVE",
"425 620 OFFCURVE",
"522 634 CURVE SMOOTH"
);
},
{
closed = 0;
nodes = (
"112 42 LINE",
"258 84 OFFCURVE",
"381 105 OFFCURVE",
"566 105 CURVE SMOOTH"
);
},
{
closed = 0;
nodes = (
"319 108 LINE",
"315 302 OFFCURVE",
"339 392 OFFCURVE",
"351 601 CURVE SMOOTH"
);
}
);
};
backgroundImage = {
crop = "{{0, 0}, {2004, 204}}";
imagePath = "Images/H_.glif-Regular.tif";
locked = "1";
transform = "{5.497, 0, 0, 5.497, -9537, -208}";
};
layerId = "DC44E50C-9AA1-421C-802C-D4D023281425";
paths = (
{
closed = 1;
nodes = (
"108 -18 OFFCURVE",
"114 -17 OFFCURVE",
"120 -15 CURVE SMOOTH",
"274 29 OFFCURVE",
"390 45 OFFCURVE",
"556 45 CURVE SMOOTH",
"589 45 OFFCURVE",
"616 72 OFFCURVE",
"616 105 CURVE SMOOTH",
"616 138 OFFCURVE",
"589 165 OFFCURVE",
"556 165 CURVE SMOOTH",
"381 165 OFFCURVE",
"250 147 OFFCURVE",
"87 100 CURVE SMOOTH",
"61 93 OFFCURVE",
"42 70 OFFCURVE",
"42 42 CURVE SMOOTH",
"42 9 OFFCURVE",
"69 -18 OFFCURVE",
"102 -18 CURVE SMOOTH"
);
},
{
closed = 1;
nodes = (
"84 548 OFFCURVE",
"88 548 OFFCURVE",
"91 549 CURVE SMOOTH",
"176 562 OFFCURVE",
"267 564 OFFCURVE",
"351 565 CURVE SMOOTH",
"414 567 OFFCURVE",
"474 568 OFFCURVE",
"520 574 CURVE SMOOTH",
"549 578 OFFCURVE",
"572 603 OFFCURVE",
"572 634 CURVE SMOOTH",
"572 667 OFFCURVE",
"545 694 OFFCURVE",
"512 694 CURVE SMOOTH",
"509 694 OFFCURVE",
"506 694 OFFCURVE",
"503 693 CURVE SMOOTH",
"464 688 OFFCURVE",
"411 687 OFFCURVE",
"348 685 CURVE SMOOTH",
"264 684 OFFCURVE",
"165 682 OFFCURVE",
"73 667 CURVE SMOOTH",
"44 663 OFFCURVE",
"21 638 OFFCURVE",
"21 608 CURVE SMOOTH",
"21 575 OFFCURVE",
"48 548 OFFCURVE",
"81 548 CURVE SMOOTH"
);
},
{
closed = 1;
nodes = (
"343 48 OFFCURVE",
"369 76 OFFCURVE",
"369 109 CURVE SMOOTH",
"369 330 OFFCURVE",
"401 508 OFFCURVE",
"401 601 CURVE SMOOTH",
"401 634 OFFCURVE",
"374 661 OFFCURVE",
"341 661 CURVE SMOOTH",
"309 661 OFFCURVE",
"281 636 OFFCURVE",
"281 604 CURVE SMOOTH",
"281 480 OFFCURVE",
"245 279 OFFCURVE",
"249 107 CURVE SMOOTH",
"250 74 OFFCURVE",
"276 48 OFFCURVE",
"309 48 CURVE SMOOTH"
);
}
);
width = 640;
}
);
unicode = 0049;
},
{
glyphname = J;
lastChange = "2020-07-02 22:32:01 +0000";
layers = (
{
background = {
paths = (
{
closed = 0;
nodes = (
"56 605 LINE",
"72 594 OFFCURVE",
"92 584 OFFCURVE",
"117 584 CURVE SMOOTH",
"192 584 OFFCURVE",
"324 604 OFFCURVE",
"466 599 CURVE SMOOTH"
);
},
{
closed = 0;
nodes = (
"297 584 LINE",
"348 494 OFFCURVE",
"410 307 OFFCURVE",
"410 196 CURVE SMOOTH",
"410 114 OFFCURVE",
"357 68 OFFCURVE",
"242 68 CURVE SMOOTH",
"158 68 OFFCURVE",
"104 103 OFFCURVE",
"104 170 CURVE SMOOTH",
"104 204 OFFCURVE",
"117 236 OFFCURVE",
"135 258 CURVE SMOOTH"
);
}
);
};
backgroundImage = {
crop = "{{0, 0}, {1775, 229}}";
imagePath = "Images/B_.glif-Regular.tif";
locked = "1";
transform = "{5.22, 0, 0, 5.22, -1272, -300}";
};
layerId = "DC44E50C-9AA1-421C-802C-D4D023281425";
paths = (
{
closed = 1;
nodes = (
"385.916 8 OFFCURVE",
"470 76.382 OFFCURVE",
"470 196 CURVE SMOOTH",
"470 303.934 OFFCURVE",
"413.331 499.792 OFFCURVE",
"349.817 612.491 CURVE SMOOTH",
"339.674 631.254 OFFCURVE",
"319.826 644 OFFCURVE",
"297 644 CURVE SMOOTH",
"263.863 644 OFFCURVE",
"237 617.137 OFFCURVE",
"237 584 CURVE SMOOTH",
"237 572.891 OFFCURVE",
"240.019 562.487 OFFCURVE",
"245.282 553.563 CURVE SMOOTH",
"299.343 457.665 OFFCURVE",
"350 284.564 OFFCURVE",
"350 196 CURVE SMOOTH",
"350 149.105 OFFCURVE",
"323.158 128 OFFCURVE",
"242 128 CURVE SMOOTH",
"185.656 128 OFFCURVE",
"164 143.195 OFFCURVE",
"164 170 CURVE SMOOTH",
"164 188.528 OFFCURVE",
"170.096 206.018 OFFCURVE",
"181.229 219.75 CURVE SMOOTH",
"189.83 230.134 OFFCURVE",
"195 243.463 OFFCURVE",
"195 258 CURVE SMOOTH",
"195 291.137 OFFCURVE",
"168.137 318 OFFCURVE",
"135 318 CURVE SMOOTH",
"116.009 318 OFFCURVE",
"99.079 309.177 OFFCURVE",
"88.085 295.406 CURVE SMOOTH",
"60.548 261.444 OFFCURVE",
"44 214.357 OFFCURVE",
"44 170 CURVE SMOOTH",
"44 68.936 OFFCURVE",
"124.291 8 OFFCURVE",
"242 8 CURVE SMOOTH"
);
},
{
closed = 1;
nodes = (
"147.558 524 OFFCURVE",
"186.179 527.013 OFFCURVE",
"228.036 530.279 CURVE SMOOTH",
"285.06 534.729 OFFCURVE",
"350.084 539.802 OFFCURVE",
"419.102 539.802 CURVE SMOOTH",
"433.915 539.802 OFFCURVE",
"449.058 539.557 OFFCURVE",
"463.65 539.045 CURVE SMOOTH",
"464.43 539.015 OFFCURVE",
"465.213 539 OFFCURVE",
"466 539 CURVE SMOOTH",
"499.137 539 OFFCURVE",
"526 565.863 OFFCURVE",
"526 599 CURVE SMOOTH",
"526 631.505 OFFCURVE",
"500.151 657.973 OFFCURVE",
"467.888 658.971 CURVE SMOOTH",
"452.228 659.52 OFFCURVE",
"436.283 659.802 OFFCURVE",
"419.102 659.802 CURVE SMOOTH",
"345.41 659.802 OFFCURVE",
"275.725 654.365 OFFCURVE",
"218.701 649.916 CURVE SMOOTH",
"176.844 646.65 OFFCURVE",
"142.883 644 OFFCURVE",
"117 644 CURVE SMOOTH",
"108.136 644 OFFCURVE",
"102.318 646.024 OFFCURVE",
"90.508 654.09 CURVE SMOOTH",
"80.747 660.963 OFFCURVE",
"68.845 665 OFFCURVE",
"56 665 CURVE SMOOTH",
"22.863 665 OFFCURVE",
"-4 638.137 OFFCURVE",
"-4 605 CURVE SMOOTH",
"-4 584.122 OFFCURVE",
"6.664 565.734 OFFCURVE",
"22.842 554.987 CURVE SMOOTH",
"51.882 535.237 OFFCURVE",
"84.728 524 OFFCURVE",
"117 524 CURVE SMOOTH"
);
}
);
width = 600;
},
{
associatedMasterId = "DC44E50C-9AA1-421C-802C-D4D023281425";
background = {
paths = (
{
closed = 0;
nodes = (
"-17 605 LINE",
"7 594 OFFCURVE",
"35 584 OFFCURVE",
"72 584 CURVE SMOOTH",
"180 584 OFFCURVE",
"371 604 OFFCURVE",
"576 599 CURVE"
);
},
{
closed = 0;
nodes = (
"357 584 LINE",
"408 494 OFFCURVE",
"470 307 OFFCURVE",
"470 196 CURVE SMOOTH",
"470 114 OFFCURVE",
"417 68 OFFCURVE",
"302 68 CURVE SMOOTH",
"218 68 OFFCURVE",
"164 103 OFFCURVE",
"164 170 CURVE SMOOTH",
"164 204 OFFCURVE",
"177 236 OFFCURVE",
"195 258 CURVE SMOOTH"
);
}
);
};
backgroundImage = {
crop = "{{0, 0}, {1775, 229}}";
imagePath = "Images/B_.glif-Regular.tif";
locked = "1";
transform = "{5.22, 0, 0, 5.22, -1272, -300}";
};
layerId = "A36A461E-90EF-444D-B2B3-8BAF5CDD9D42";
name = "Jul 2 20, 18:31";
paths = (
{
closed = 0;
nodes = (
"-17 605 LINE",
"7 594 OFFCURVE",
"35 584 OFFCURVE",
"72 584 CURVE SMOOTH",
"180 584 OFFCURVE",
"371 604 OFFCURVE",
"576 599 CURVE"
);
},
{
closed = 0;
nodes = (
"357 584 LINE",
"408 494 OFFCURVE",
"470 307 OFFCURVE",
"470 196 CURVE SMOOTH",
"470 114 OFFCURVE",
"417 68 OFFCURVE",
"302 68 CURVE SMOOTH",
"218 68 OFFCURVE",
"164 103 OFFCURVE",
"164 170 CURVE SMOOTH",
"164 204 OFFCURVE",
"177 236 OFFCURVE",
"195 258 CURVE SMOOTH"
);
}
);
width = 600;
}
);
unicode = 004A;
},
{
glyphname = K;
lastChange = "2020-07-02 22:32:50 +0000";
layers = (
{
background = {
paths = (
{
closed = 0;
nodes = (
"114 630 LINE",
"127 596 OFFCURVE",
"133 562 OFFCURVE",
"133 526 CURVE SMOOTH",
"133 454 OFFCURVE",
"109 327 OFFCURVE",
"109 209 CURVE SMOOTH",
"109 134 OFFCURVE",
"117 88 OFFCURVE",
"126 59 CURVE SMOOTH"
);
},
{
closed = 0;
nodes = (
"448 472 LINE",
"281 393 OFFCURVE",
"189 301 OFFCURVE",
"189 250 CURVE SMOOTH",
"189 173 OFFCURVE",
"333 104 OFFCURVE",
"563 68 CURVE SMOOTH"
);
}
);
};
backgroundImage = {
crop = "{{0, 0}, {1775, 229}}";
imagePath = "Images/B_.glif-Regular.tif";
locked = "1";
transform = "{5.22, 0, 0, 5.22, -1992, -300}";
};
layerId = "DC44E50C-9AA1-421C-802C-D4D023281425";
paths = (
{
closed = 1;
nodes = (
"159.137 -1 OFFCURVE",
"186 25.863 OFFCURVE",
"186 59 CURVE SMOOTH",
"186 65.612 OFFCURVE",
"184.93 71.975 OFFCURVE",
"182.955 77.924 CURVE SMOOTH",
"173.658 108.565 OFFCURVE",
"169 151.817 OFFCURVE",
"169 209 CURVE SMOOTH",
"169 271.975 OFFCURVE",
"176.209 337.806 OFFCURVE",
"182.844 398.403 CURVE SMOOTH",
"188.027 445.738 OFFCURVE",
"193 491.148 OFFCURVE",
"193 526 CURVE SMOOTH",
"193 568.183 OFFCURVE",
"185.241 611.109 OFFCURVE",
"170.601 649.958 CURVE SMOOTH",
"162.376 673.284 OFFCURVE",
"140.14 690 OFFCURVE",
"114 690 CURVE SMOOTH",
"80.863 690 OFFCURVE",
"54 663.137 OFFCURVE",
"54 630 CURVE SMOOTH",
"54 622.008 OFFCURVE",
"55.563 614.38 OFFCURVE",
"58.399 607.407 CURVE SMOOTH",
"68.671 580.187 OFFCURVE",
"73 556.022 OFFCURVE",
"73 526 CURVE SMOOTH",
"73 497.699 OFFCURVE",
"68.74 458.8 OFFCURVE",
"63.557 411.465 CURVE SMOOTH",
"56.922 350.868 OFFCURVE",
"49 278.525 OFFCURVE",
"49 209 CURVE SMOOTH",
"49 142.185 OFFCURVE",
"55.696 83.981 OFFCURVE",
"68.242 42.697 CURVE SMOOTH",
"75.344 17.483 OFFCURVE",
"98.514 -1 OFFCURVE",
"126 -1 CURVE SMOOTH"
);
},
{
closed = 1;
nodes = (
"596.137 8 OFFCURVE",
"623 34.863 OFFCURVE",
"623 68 CURVE SMOOTH",
"623 98.301 OFFCURVE",
"600.538 123.356 OFFCURVE",
"571.356 127.423 CURVE SMOOTH",
"385.695 156.614 OFFCURVE",
"249 217.558 OFFCURVE",
"249 250 CURVE SMOOTH",
"249 274.925 OFFCURVE",
"354.81 361.301 OFFCURVE",
"472.487 417.208 CURVE SMOOTH",
"493.417 426.576 OFFCURVE",
"508 447.585 OFFCURVE",
"508 472 CURVE SMOOTH",
"508 505.137 OFFCURVE",
"481.137 532 OFFCURVE",
"448 532 CURVE SMOOTH",
"438.354 532 OFFCURVE",
"429.24 529.724 OFFCURVE",
"421.166 525.679 CURVE SMOOTH",
"257.882 448.223 OFFCURVE",
"129 342.332 OFFCURVE",
"129 250 CURVE SMOOTH",
"129 125.27 OFFCURVE",
"307.754 47.371 OFFCURVE",
"552.618 8.895 CURVE SMOOTH",
"555.99 8.307 OFFCURVE",
"559.459 8 OFFCURVE",
"563 8 CURVE SMOOTH"
);
}
);
width = 600;
},
{
associatedMasterId = "DC44E50C-9AA1-421C-802C-D4D023281425";
background = {
paths = (
{
closed = 0;
nodes = (
"114 630 LINE",
"127 596 OFFCURVE",
"133 562 OFFCURVE",
"133 526 CURVE SMOOTH",
"133 454 OFFCURVE",
"109 327 OFFCURVE",
"109 209 CURVE SMOOTH",
"109 134 OFFCURVE",
"117 88 OFFCURVE",
"126 59 CURVE SMOOTH"
);
},
{
closed = 0;
nodes = (
"448 472 LINE",
"281 393 OFFCURVE",
"189 301 OFFCURVE",
"189 250 CURVE SMOOTH",
"189 173 OFFCURVE",
"333 104 OFFCURVE",
"563 68 CURVE SMOOTH"
);
}
);
};
backgroundImage = {
crop = "{{0, 0}, {1775, 229}}";
imagePath = "Images/B_.glif-Regular.tif";
locked = "1";
transform = "{5.22, 0, 0, 5.22, -1992, -300}";
};
layerId = "30C06A2D-5146-4A08-85D5-1C73F5773065";
name = "Jul 2 20, 18:32";
paths = (
{
closed = 0;
nodes = (
"114 630 LINE",
"127 596 OFFCURVE",
"133 562 OFFCURVE",
"133 526 CURVE SMOOTH",
"133 454 OFFCURVE",
"109 327 OFFCURVE",
"109 209 CURVE SMOOTH",
"109 134 OFFCURVE",
"117 88 OFFCURVE",
"126 59 CURVE SMOOTH"
);
},
{
closed = 0;
nodes = (
"448 472 LINE",
"281 393 OFFCURVE",
"189 301 OFFCURVE",
"189 250 CURVE SMOOTH",
"189 173 OFFCURVE",
"333 104 OFFCURVE",
"563 68 CURVE SMOOTH"
);
}
);
width = 600;
}
);
unicode = 004B;
},
{
glyphname = L;
lastChange = "2020-07-02 22:33:14 +0000";
layers = (
{
background = {
paths = (
{
closed = 0;
nodes = (
"117 566 LINE",
"125 500 OFFCURVE",
"101 418 OFFCURVE",
"101 345 CURVE SMOOTH",
"101 245 OFFCURVE",
"133 181 OFFCURVE",
"227 181 CURVE SMOOTH",
"301 181 OFFCURVE",
"364 200 OFFCURVE",
"411 227 CURVE SMOOTH"
);
}
);
};
backgroundImage = {
crop = "{{0, 0}, {1775, 229}}";
imagePath = "Images/B_.glif-Regular.tif";
locked = "1";
transform = "{5.22, 0, 0, 5.22, -2665, -300}";
};
layerId = "DC44E50C-9AA1-421C-802C-D4D023281425";
paths = (
{
closed = 1;
nodes = (
"303.072 121 OFFCURVE",
"379.809 140.206 OFFCURVE",
"439.731 174.314 CURVE SMOOTH",
"458.362 184.495 OFFCURVE",
"471 204.272 OFFCURVE",
"471 227 CURVE SMOOTH",
"471 260.137 OFFCURVE",
"444.137 287 OFFCURVE",
"411 287 CURVE SMOOTH",
"399.78 287 OFFCURVE",
"389.279 283.92 OFFCURVE",
"380.297 278.56 CURVE SMOOTH",
"336.581 253.654 OFFCURVE",
"285.135 241 OFFCURVE",
"227 241 CURVE SMOOTH",
"179.147 241 OFFCURVE",
"161 263.932 OFFCURVE",
"161 345 CURVE SMOOTH",
"161 372.571 OFFCURVE",
"164.959 401.866 OFFCURVE",
"169.412 434.819 CURVE SMOOTH",
"173.774 467.101 OFFCURVE",
"178.633 503.054 OFFCURVE",
"178.633 536.808 CURVE SMOOTH",
"178.633 549.432 OFFCURVE",
"177.991 561.117 OFFCURVE",
"176.668 572.348 CURVE SMOOTH",
"173.497 602.501 OFFCURVE",
"147.993 626 OFFCURVE",
"117 626 CURVE SMOOTH",
"83.863 626 OFFCURVE",
"57 599.137 OFFCURVE",
"57 566 CURVE SMOOTH",
"57 563.306 OFFCURVE",
"57.178 560.653 OFFCURVE",
"57.522 558.052 CURVE SMOOTH",
"58.251 551.749 OFFCURVE",
"58.633 544.59 OFFCURVE",
"58.633 536.808 CURVE SMOOTH",
"58.633 511.125 OFFCURVE",
"54.855 483.171 OFFCURVE",
"50.493 450.889 CURVE SMOOTH",
"46.04 417.936 OFFCURVE",
"41 380.643 OFFCURVE",
"41 345 CURVE SMOOTH",
"41 200.802 OFFCURVE",
"106.495 121 OFFCURVE",
"227 121 CURVE SMOOTH"
);
}
);
width = 510;
}
);
unicode = 004C;
},
{
glyphname = M;
lastChange = "2020-07-02 22:33:23 +0000";
layers = (
{
background = {
paths = (
{
closed = 0;
nodes = (
"104 519 LINE",
"130 425 OFFCURVE",
"105 302 OFFCURVE",
"128 151 CURVE",
"128 329 OFFCURVE",
"219 558 OFFCURVE",
"271 558 CURVE SMOOTH",
"350 558 OFFCURVE",
"351 270 OFFCURVE",
"442 153 CURVE",
"545 391 OFFCURVE",
"639 534 OFFCURVE",
"670 534 CURVE SMOOTH",
"720 534 OFFCURVE",
"718 245 OFFCURVE",
"797 112 CURVE"
);
}
);
};
backgroundImage = {
crop = "{{0, 0}, {1775, 229}}";
imagePath = "Images/B_.glif-Regular.tif";
locked = "1";
transform = "{5.22, 0, 0, 5.22, -3157, -300}";
};
layerId = "DC44E50C-9AA1-421C-802C-D4D023281425";
paths = (
{
closed = 1;
nodes = (
"830.137 52 OFFCURVE",
"857 78.863 OFFCURVE",
"857 112 CURVE SMOOTH",
"857 123.51 OFFCURVE",
"853.759 134.262 OFFCURVE",
"848.14 143.395 CURVE SMOOTH",
"813.493 202.315 OFFCURVE",
"796.263 300.432 OFFCURVE",
"780.475 390.345 CURVE SMOOTH",
"761.261 499.763 OFFCURVE",
"747.481 594 OFFCURVE",
"670 594 CURVE SMOOTH",
"601.659 594 OFFCURVE",
"518.822 460.031 OFFCURVE",
"441.02 296.451 CURVE",
"431.373 328.181 OFFCURVE",
"422.813 362.873 OFFCURVE",
"414.142 398.017 CURVE SMOOTH",
"381.745 529.32 OFFCURVE",
"355.276 618 OFFCURVE",
"271 618 CURVE SMOOTH",
"231.618 618 OFFCURVE",
"194.601 583.181 OFFCURVE",
"163.236 529.716 CURVE",
"162.904 531.01 OFFCURVE",
"162.564 532.3 OFFCURVE",
"162.215 533.584 CURVE SMOOTH",
"155.7 559.673 OFFCURVE",
"132.107 579 OFFCURVE",
"104 579 CURVE SMOOTH",
"70.863 579 OFFCURVE",
"44 552.137 OFFCURVE",
"44 519 CURVE SMOOTH",
"44 513.039 OFFCURVE",
"44.869 507.282 OFFCURVE",
"46.488 501.847 CURVE SMOOTH",
"54.331 472.871 OFFCURVE",
"57.142 438.706 OFFCURVE",
"57.142 370.004 CURVE SMOOTH",
"57.142 363.816 OFFCURVE",
"57.128 357.551 OFFCURVE",
"57.114 351.144 CURVE SMOOTH",
"57.099 344.579 OFFCURVE",
"57.084 337.866 OFFCURVE",
"57.084 331.076 CURVE SMOOTH",
"57.084 291.755 OFFCURVE",
"57.614 247.684 OFFCURVE",
"61.729 200.546 CURVE SMOOTH",
"65.089 162.072 OFFCURVE",
"88.899 143.496 OFFCURVE",
"127.199 146.396 CURVE SMOOTH",
"132.947 146.831 LINE SMOOTH",
"169.65 149.611 OFFCURVE",
"187.707 169.357 OFFCURVE",
"193.269 205.642 CURVE SMOOTH",
"207.298 296.972 OFFCURVE",
"245.682 437.215 OFFCURVE",
"263.178 482.988 CURVE",
"270.343 465.346 OFFCURVE",
"282.221 431.746 OFFCURVE",
"297.636 369.27 CURVE SMOOTH",
"314.22 302.058 OFFCURVE",
"334.417 220.2 OFFCURVE",
"368.448 156.951 CURVE SMOOTH",
"384.323 127.301 OFFCURVE",
"409.593 118.063 OFFCURVE",
"442.942 122.297 CURVE SMOOTH",
"450.425 123.248 LINE SMOOTH",
"482.92 127.374 OFFCURVE",
"502.67 142.005 OFFCURVE",
"516.881 171.493 CURVE SMOOTH",
"551.325 242.501 OFFCURVE",
"614.091 365.115 OFFCURVE",
"647.566 430.299 CURVE",
"652.421 415.409 OFFCURVE",
"657.702 395.68 OFFCURVE",
"662.283 369.591 CURVE SMOOTH",
"678.064 279.72 OFFCURVE",
"699.049 160.218 OFFCURVE",
"744.761 82.464 CURVE SMOOTH",
"755.068 64.275 OFFCURVE",
"774.601 52 OFFCURVE",
"797 52 CURVE SMOOTH"
);
}
);
width = 896;
}
);
unicode = 004D;
},
{
glyphname = N;
lastChange = "2020-07-01 02:43:59 +0000";
layers = (
{
background = {
paths = (
{
closed = 0;
nodes = (
"100 54 LINE",
"155 219 OFFCURVE",
"138 474 OFFCURVE",
"115 638 CURVE",
"340 450 OFFCURVE",
"487 64 OFFCURVE",
"675 64 CURVE SMOOTH",
"762 64 OFFCURVE",
"689 433 OFFCURVE",
"745 678 CURVE SMOOTH"
);
}
);
};
backgroundImage = {
crop = "{{0, 0}, {2004, 204}}";
imagePath = "Images/H_.glif-Regular.tif";
transform = "{5.497, 0, 0, 5.497, -6805, -206}";
};
layerId = "DC44E50C-9AA1-421C-802C-D4D023281425";
paths = (
{
closed = 1;
nodes = (
"127 -6 OFFCURVE",
"150 12 OFFCURVE",
"157 36 CURVE SMOOTH",
"183 115 OFFCURVE",
"197 220 OFFCURVE",
"197 342 CURVE SMOOTH",
"197 386 OFFCURVE",
"195 430 OFFCURVE",
"192 472 CURVE",
"233 422 OFFCURVE",
"272 367 OFFCURVE",
"311 313 CURVE SMOOTH",
"418 164 OFFCURVE",
"533 4 OFFCURVE",
"675 4 CURVE SMOOTH",
"772 4 OFFCURVE",
"792 112 OFFCURVE",
"792 261 CURVE SMOOTH",
"792 450 OFFCURVE",
"781 564 OFFCURVE",
"803 663 CURVE SMOOTH",
"813 702 OFFCURVE",
"797 738 OFFCURVE",
"753 738 CURVE SMOOTH",
"716 738 OFFCURVE",
"692 717 OFFCURVE",
"686 690 CURVE SMOOTH",
"656 557 OFFCURVE",
"672 412 OFFCURVE",
"672 261 CURVE SMOOTH",
"672 173 OFFCURVE",
"653 141 OFFCURVE",
"649 128 CURVE",
"596 143 OFFCURVE",
"533 210 OFFCURVE",
"409 383 CURVE SMOOTH",
"345 472 OFFCURVE",
"273 572 OFFCURVE",
"192 650 CURVE SMOOTH",
"165 676 OFFCURVE",
"134 683 OFFCURVE",
"100 664 CURVE SMOOTH",
"64 643 OFFCURVE",
"58 614 OFFCURVE",
"62 580 CURVE SMOOTH",
"70 508 OFFCURVE",
"77 426 OFFCURVE",
"77 342 CURVE SMOOTH",
"77 231 OFFCURVE",
"66 141 OFFCURVE",
"43 74 CURVE SMOOTH",
"41 68 OFFCURVE",
"40 61 OFFCURVE",
"40 54 CURVE SMOOTH",
"40 21 OFFCURVE",
"67 -6 OFFCURVE",
"100 -6 CURVE SMOOTH"
);
}
);
width = 855;
}
);
unicode = 004E;
},
{
glyphname = O;
lastChange = "2020-07-01 02:35:26 +0000";
layers = (
{
background = {
paths = (
{
closed = 0;
nodes = (
"331 588 LINE",
"157 462 OFFCURVE",
"100 400 OFFCURVE",
"100 285 CURVE SMOOTH",
"100 181 OFFCURVE",
"205 42 OFFCURVE",
"373 42 CURVE SMOOTH",
"549 42 OFFCURVE",
"735 161 OFFCURVE",
"735 295 CURVE SMOOTH",
"735 449 OFFCURVE",
"595 651 OFFCURVE",
"406 651 CURVE SMOOTH",
"294 651 OFFCURVE",
"288 539 OFFCURVE",
"343 486 CURVE SMOOTH"
);
}
);
};
backgroundImage = {
crop = "{{0, 0}, {2004, 204}}";
imagePath = "Images/H_.glif-Regular.tif";
locked = "1";
transform = "{5.497, 0, 0, 5.497, -8719, -208}";
};
layerId = "DC44E50C-9AA1-421C-802C-D4D023281425";
paths = (
{
closed = 1;
nodes = (
"93 487 OFFCURVE",
"40 413 OFFCURVE",
"40 285 CURVE SMOOTH",
"40 125 OFFCURVE",
"196 -18 OFFCURVE",
"373 -18 CURVE SMOOTH",
"590 -18 OFFCURVE",
"795 130 OFFCURVE",
"795 295 CURVE SMOOTH",
"795 507 OFFCURVE",
"607 711 OFFCURVE",
"406 711 CURVE SMOOTH",
"324 711 OFFCURVE",
"251 657 OFFCURVE",
"251 590 CURVE SMOOTH",
"251 539 OFFCURVE",
"258 483 OFFCURVE",
"301 443 CURVE SMOOTH",
"312 432 OFFCURVE",
"327 426 OFFCURVE",
"343 426 CURVE SMOOTH",
"376 426 OFFCURVE",
"403 453 OFFCURVE",
"403 486 CURVE SMOOTH",
"403 526 OFFCURVE",
"369 531 OFFCURVE",
"369 566 CURVE SMOOTH",
"369 582 OFFCURVE",
"378 591 OFFCURVE",
"406 591 CURVE SMOOTH",
"539 591 OFFCURVE",
"675 441 OFFCURVE",
"675 295 CURVE SMOOTH",
"675 202 OFFCURVE",
"523 102 OFFCURVE",
"373 102 CURVE SMOOTH",
"262 102 OFFCURVE",
"160 192 OFFCURVE",
"160 285 CURVE SMOOTH",
"160 357 OFFCURVE",
"185 401 OFFCURVE",
"298 489 CURVE SMOOTH",
"337 517 OFFCURVE",
"346 533 OFFCURVE",
"346 566 CURVE SMOOTH",
"346 604 OFFCURVE",
"324 620 OFFCURVE",
"299 620 CURVE SMOOTH",
"286 620 OFFCURVE",
"271 615 OFFCURVE",
"259 606 CURVE SMOOTH"
);
}
);
width = 835;
}
);
unicode = 004F;
},
{
glyphname = P;
lastChange = "2020-07-02 22:35:08 +0000";
layers = (
{
background = {
paths = (
{
closed = 0;
nodes = (
"201 78 LINE",
"178 250 OFFCURVE",
"127 343 OFFCURVE",
"127 449 CURVE SMOOTH",
"127 548 OFFCURVE",
"182 611 OFFCURVE",
"311 611 CURVE SMOOTH",
"400 611 OFFCURVE",
"476 558 OFFCURVE",
"476 461 CURVE SMOOTH",
"476 372 OFFCURVE",
"354 255 OFFCURVE",
"268 255 CURVE SMOOTH",
"225 255 OFFCURVE",
"190 269 OFFCURVE",
"169 286 CURVE SMOOTH"
);
}
);
};
backgroundImage = {
crop = "{{0, 0}, {1775, 229}}";
imagePath = "Images/B_.glif-Regular.tif";
locked = "1";
transform = "{5.22, 0, 0, 5.22, -4061, -300}";
};
layerId = "DC44E50C-9AA1-421C-802C-D4D023281425";
paths = (
{
closed = 1;
nodes = (
"199 195 OFFCURVE",
"268 195 CURVE SMOOTH",
"389.368 195 OFFCURVE",
"536 340.472 OFFCURVE",
"536 461 CURVE SMOOTH",
"536 583.708 OFFCURVE",
"441.87 671 OFFCURVE",
"311 671 CURVE SMOOTH",
"157.569 671 OFFCURVE",
"67 589.385 OFFCURVE",
"67 449 CURVE SMOOTH",
"67 385.398 OFFCURVE",
"83.128 325.654 OFFCURVE",
"99.809 263.864 CURVE SMOOTH",
"114.854 208.13 OFFCURVE",
"131.018 148.251 OFFCURVE",
"141.427 70.805 CURVE SMOOTH",
"144.982 41.06 OFFCURVE",
"170.298 18 OFFCURVE",
"201 18 CURVE SMOOTH",
"234.137 18 OFFCURVE",
"261 44.863 OFFCURVE",
"261 78 CURVE SMOOTH",
"261 81.041 OFFCURVE",
"260.773 84.03 OFFCURVE",
"260.337 86.95 CURVE SMOOTH",
"251 154 OFFCURVE",
"247 170 OFFCURVE",
"211 313 CURVE SMOOTH",
"197 366 OFFCURVE",
"187 406 OFFCURVE",
"187 449 CURVE SMOOTH",
"187 520 OFFCURVE",
"222 551 OFFCURVE",
"311 551 CURVE SMOOTH",
"376 551 OFFCURVE",
"416 516 OFFCURVE",
"416 461 CURVE SMOOTH",
"416 407 OFFCURVE",
"322 315 OFFCURVE",
"268 315 CURVE SMOOTH",
"201 315 OFFCURVE",
"210 338 OFFCURVE",
"174 338 CURVE SMOOTH",
"152 338 OFFCURVE",
"127 319 OFFCURVE",
"127 289 CURVE SMOOTH",
"127 233 OFFCURVE"
);
}
);
width = 600;
}
);
unicode = 0050;
},
{
glyphname = Q;
lastChange = "2020-07-02 22:37:44 +0000";
layers = (
{
background = {
paths = (
{
closed = 0;
nodes = (
"293 587 LINE",
"168 529 OFFCURVE",
"106 425 OFFCURVE",
"106 330 CURVE SMOOTH",
"106 205 OFFCURVE",
"188 91 OFFCURVE",
"416 91 CURVE SMOOTH",
"604 91 OFFCURVE",
"716 190 OFFCURVE",
"716 292 CURVE SMOOTH",
"716 419 OFFCURVE",
"643 635 OFFCURVE",
"498 635 CURVE SMOOTH",
"401 635 OFFCURVE",
"298 580 OFFCURVE",
"243 500 CURVE SMOOTH"
);
},
{
closed = 0;
nodes = (
"520 294 LINE",
"562 212 OFFCURVE",
"596 -6 OFFCURVE",
"701 -127 CURVE SMOOTH"
);
},
{
closed = 0;
nodes = (
"472 266 LINE",
"532 196 OFFCURVE",
"618 -7 OFFCURVE",
"749 -99 CURVE SMOOTH"
);
}
);
};
backgroundImage = {
crop = "{{0, 0}, {1775, 229}}";
imagePath = "Images/B_.glif-Regular.tif";
locked = "1";
transform = "{5.22, 0, 0, 5.22, -4659, -300}";
};
layerId = "DC44E50C-9AA1-421C-802C-D4D023281425";
paths = (
{
closed = 1;
nodes = (
"307 616 OFFCURVE",
"291 630 OFFCURVE",
"269 630 CURVE SMOOTH",
"249 630 OFFCURVE",
"228 621 OFFCURVE",
"213.053 611.302 CURVE SMOOTH",
"109.336 544.233 OFFCURVE",
"46 440.295 OFFCURVE",
"46 330 CURVE SMOOTH",
"46 144.015 OFFCURVE",
"186.783 31 OFFCURVE",
"416 31 CURVE SMOOTH",
"620.218 31 OFFCURVE",
"776 142.471 OFFCURVE",
"776 292 CURVE SMOOTH",
"776 506.319 OFFCURVE",
"650.244 695 OFFCURVE",
"498 695 CURVE SMOOTH",
"407 695 OFFCURVE",
"318 649 OFFCURVE",
"238 587 CURVE SMOOTH",
"216 570 OFFCURVE",
"200 549 OFFCURVE",
"200 515 CURVE SMOOTH",
"201 477 OFFCURVE",
"236 471 OFFCURVE",
"246 471 CURVE SMOOTH",
"286 471 OFFCURVE",
"296 477 OFFCURVE",
"330 508 CURVE SMOOTH",
"376 549 OFFCURVE",
"439 575 OFFCURVE",
"498 575 CURVE SMOOTH",
"577 575 OFFCURVE",
"656 435 OFFCURVE",
"656 292 CURVE SMOOTH",
"656 216 OFFCURVE",
"554 151 OFFCURVE",
"416 151 CURVE SMOOTH",
"252 151 OFFCURVE",
"166 215 OFFCURVE",
"166 330 CURVE SMOOTH",
"166 395 OFFCURVE",
"204 459 OFFCURVE",
"268 504 CURVE SMOOTH",
"297 527 OFFCURVE",
"308 552 OFFCURVE",
"307 581 CURVE"
);
},
{
closed = 1;
nodes = (
"782.137 -159 OFFCURVE",
"809 -132.137 OFFCURVE",
"809 -99 CURVE SMOOTH",
"809 -78.444 OFFCURVE",
"798.663 -60.303 OFFCURVE",
"782.903 -49.49 CURVE SMOOTH",
"705.297 5.301 OFFCURVE",
"644.187 106.505 OFFCURVE",
"591.11 194.405 CURVE SMOOTH",
"565.454 236.895 OFFCURVE",
"540.65 277.972 OFFCURVE",
"517.923 304.616 CURVE SMOOTH",
"506.917 317.691 OFFCURVE",
"490.429 326 OFFCURVE",
"472 326 CURVE SMOOTH",
"438.863 326 OFFCURVE",
"412 299.137 OFFCURVE",
"412 266 CURVE SMOOTH",
"412 250.976 OFFCURVE",
"417.522 237.241 OFFCURVE",
"426.648 226.715 CURVE SMOOTH",
"442.962 207.601 OFFCURVE",
"462.697 174.92 OFFCURVE",
"488.385 132.377 CURVE SMOOTH",
"541.472 44.46 OFFCURVE",
"615.604 -78.309 OFFCURVE",
"713.84 -147.624 CURVE SMOOTH",
"723.72 -154.781 OFFCURVE",
"735.867 -159 OFFCURVE",
"749 -159 CURVE SMOOTH"
);
}
);
width = 825;
}
);
unicode = 0051;
},
{
glyphname = R;
lastChange = "2020-07-01 02:41:01 +0000";
layers = (
{
background = {
paths = (
{
closed = 0;
nodes = (
"118 516 LINE",
"219 330 OFFCURVE",
"83 207 OFFCURVE",
"142 -1 CURVE",
"34 199 OFFCURVE",
"303 680 OFFCURVE",
"575 680 CURVE SMOOTH",
"655 680 OFFCURVE",
"689 633 OFFCURVE",
"689 578 CURVE SMOOTH",
"689 499 OFFCURVE",
"580 345 OFFCURVE",
"278 243 CURVE",
"328 189 OFFCURVE",
"551 97 OFFCURVE",
"789 40 CURVE SMOOTH"
);
}
);
};
backgroundImage = {
crop = "{{0, 0}, {2004, 204}}";
imagePath = "Images/H_.glif-Regular.tif";
locked = "1";
transform = "{5.497, 0, 0, 5.497, -1730, -206}";
};
layerId = "DC44E50C-9AA1-421C-802C-D4D023281425";
paths = (
{
closed = 1;
nodes = (
"822 -20 OFFCURVE",
"849 7 OFFCURVE",
"849 40 CURVE SMOOTH",
"849 69 OFFCURVE",
"829 93 OFFCURVE",
"802 99 CURVE SMOOTH",
"648 136 OFFCURVE",
"483 194 OFFCURVE",
"391 240 CURVE",
"354 224 LINE",
"564 287 OFFCURVE",
"749 448 OFFCURVE",
"749 578 CURVE SMOOTH",
"749 675 OFFCURVE",
"679 740 OFFCURVE",
"575 740 CURVE SMOOTH",
"432 740 OFFCURVE",
"278 622 OFFCURVE",
"175 465 CURVE",
"202 466 LINE",
"196 491 OFFCURVE",
"185 518 OFFCURVE",
"171 543 CURVE SMOOTH",
"161 563 OFFCURVE",
"141 576 OFFCURVE",
"118 576 CURVE SMOOTH",
"85 576 OFFCURVE",
"58 549 OFFCURVE",
"58 516 CURVE SMOOTH",
"58 505 OFFCURVE",
"61 495 OFFCURVE",
"66 486 CURVE SMOOTH",
"88 446 OFFCURVE",
"97 411 OFFCURVE",
"97 367 CURVE SMOOTH",
"97 341 OFFCURVE",
"93 316 OFFCURVE",
"89 289 CURVE",
"69 229 OFFCURVE",
"58 168 OFFCURVE",
"58 110 CURVE SMOOTH",
"58 81 OFFCURVE",
"61 52 OFFCURVE",
"68 26 CURVE SMOOTH",
"78 -11 OFFCURVE",
"109 -22 OFFCURVE",
"145 -7 CURVE SMOOTH",
"149 -5 LINE SMOOTH",
"183 9 OFFCURVE",
"193 33 OFFCURVE",
"189 69 CURVE SMOOTH",
"187 83 OFFCURVE",
"187 96 OFFCURVE",
"187 111 CURVE SMOOTH",
"187 153 OFFCURVE",
"204 249 OFFCURVE",
"205 256 CURVE",
"270 441 OFFCURVE",
"439 620 OFFCURVE",
"575 620 CURVE SMOOTH",
"614 620 OFFCURVE",
"629 607 OFFCURVE",
"629 578 CURVE SMOOTH",
"629 507 OFFCURVE",
"450 366 OFFCURVE",
"259 316 CURVE SMOOTH",
"225 307 OFFCURVE",
"194 293 OFFCURVE",
"192 256 CURVE SMOOTH",
"190 220 OFFCURVE",
"208 192 OFFCURVE",
"276 155 CURVE SMOOTH",
"400 88 OFFCURVE",
"566 32 OFFCURVE",
"774 -18 CURVE SMOOTH",
"779 -19 OFFCURVE",
"784 -20 OFFCURVE",
"789 -20 CURVE SMOOTH"
);
}
);
width = 820;
}
);
unicode = 0052;
},
{
glyphname = S;
lastChange = "2020-07-02 23:02:02 +0000";
layers = (
{
background = {
paths = (
{
closed = 0;
nodes = (
"486 676 LINE",
"316 651 OFFCURVE",
"122 518 OFFCURVE",
"122 442 CURVE SMOOTH",
"122 309 OFFCURVE",
"454 219 OFFCURVE",
"454 124 CURVE SMOOTH",
"454 25 OFFCURVE",
"199 15 OFFCURVE",
"119 50 CURVE SMOOTH"
);
}
);
};
backgroundImage = {
crop = "{{0, 0}, {2004, 204}}";
imagePath = "Images/H_.glif-Regular.tif";
transform = "{5.497, 0, 0, 5.497, -4084, -206}";
};
layerId = "DC44E50C-9AA1-421C-802C-D4D023281425";
paths = (
{
closed = 1;
nodes = (
"385 -17 OFFCURVE",
"509 31 OFFCURVE",
"509 135 CURVE SMOOTH",
"509 207 OFFCURVE",
"445 243 OFFCURVE",
"340 307 CURVE SMOOTH",
"221 380 OFFCURVE",
"182 417 OFFCURVE",
"182 442 CURVE SMOOTH",
"182 485 OFFCURVE",
"372 598 OFFCURVE",
"494 617 CURVE SMOOTH",
"523 620 OFFCURVE",
"546 646 OFFCURVE",
"546 676 CURVE SMOOTH",
"546 709 OFFCURVE",
"519 736 OFFCURVE",
"486 736 CURVE SMOOTH",
"483 736 OFFCURVE",
"479 736 OFFCURVE",
"476 735 CURVE SMOOTH",
"289 707 OFFCURVE",
"62 562 OFFCURVE",
"62 442 CURVE SMOOTH",
"62 351 OFFCURVE",
"136 291 OFFCURVE",
"278 205 CURVE SMOOTH",
"347 171 OFFCURVE",
"389 139 OFFCURVE",
"389 135 CURVE SMOOTH",
"389 127 OFFCURVE",
"313 102 OFFCURVE",
"237 103 CURVE SMOOTH",
"161 103 OFFCURVE",
"146 121 OFFCURVE",
"109 121 CURVE SMOOTH",
"81 121 OFFCURVE",
"54 94 OFFCURVE",
"54 61 CURVE SMOOTH",
"54 36 OFFCURVE",
"70 14 OFFCURVE",
"92 5 CURVE SMOOTH",
"125 -9 OFFCURVE",
"181 -17 OFFCURVE",
"237 -17 CURVE SMOOTH"
);
}
);
width = 561;
}
);
unicode = 0053;
},
{
glyphname = T;
lastChange = "2020-07-02 23:01:57 +0000";
layers = (
{
background = {
paths = (
{
closed = 0;
nodes = (
"6 640 LINE",
"236 640 OFFCURVE",
"408 613 OFFCURVE",
"595 639 CURVE SMOOTH"
);
},
{
closed = 0;
nodes = (
"385 28 LINE",
"333 160 OFFCURVE",
"321 330 OFFCURVE",
"319 620 CURVE SMOOTH"
);
}
);
};
backgroundImage = {
crop = "{{0, 0}, {2004, 204}}";
imagePath = "Images/H_.glif-Regular.tif";
transform = "{5.497, 0, 0, 5.497, -4744, -206}";
};
layerId = "DC44E50C-9AA1-421C-802C-D4D023281425";
paths = (
{
closed = 1;
nodes = (
"262 318 OFFCURVE",
"275 144 OFFCURVE",
"329 7 CURVE SMOOTH",
"337 -16 OFFCURVE",
"359 -32 OFFCURVE",
"385 -32 CURVE SMOOTH",
"434 -32 OFFCURVE",
"460 6 OFFCURVE",
"440 51 CURVE SMOOTH",
"398 160 OFFCURVE",
"382 297 OFFCURVE",
"379 594 CURVE",
"259 594 LINE"
);
},
{
closed = 1;
nodes = (
"144 577 OFFCURVE",
"320 568 OFFCURVE",
"415 568 CURVE SMOOTH",
"477 568 OFFCURVE",
"525 571 OFFCURVE",
"582 579 CURVE SMOOTH",
"612 583 OFFCURVE",
"635 608 OFFCURVE",
"635 639 CURVE SMOOTH",
"635 672 OFFCURVE",
"608 699 OFFCURVE",
"575 699 CURVE SMOOTH",
"564 699 OFFCURVE",
"497 688 OFFCURVE",
"415 688 CURVE SMOOTH",
"300 688 OFFCURVE",
"204 697 OFFCURVE",
"63 697 CURVE SMOOTH",
"30 697 OFFCURVE",
"3 670 OFFCURVE",
"3 637 CURVE SMOOTH",
"3 604 OFFCURVE",
"30 577 OFFCURVE",
"63 577 CURVE SMOOTH"
);
}
);
width = 638;
}
);
unicode = 0054;
},
{
glyphname = U;
lastChange = "2020-07-01 02:43:24 +0000";
layers = (
{
background = {
paths = (
{
closed = 0;
nodes = (
"78 656 LINE",
"113 598 OFFCURVE",
"130 510 OFFCURVE",
"136 420 CURVE SMOOTH",
"145 295 OFFCURVE",
"185 78 OFFCURVE",
"373 78 CURVE SMOOTH",
"635 78 OFFCURVE",
"523 453 OFFCURVE",
"546 612 CURVE SMOOTH"
);
}
);
};
backgroundImage = {
crop = "{{0, 0}, {2004, 204}}";
imagePath = "Images/H_.glif-Regular.tif";
transform = "{5.497, 0, 0, 5.497, -6064, -206}";
};
layerId = "DC44E50C-9AA1-421C-802C-D4D023281425";
paths = (
{
closed = 1;
nodes = (
"534 -22 OFFCURVE",
"611 86 OFFCURVE",
"611 261 CURVE SMOOTH",
"611 361 OFFCURVE",
"601 452 OFFCURVE",
"606 572 CURVE SMOOTH",
"607 608 OFFCURVE",
"583 632 OFFCURVE",
"546 632 CURVE SMOOTH",
"515 632 OFFCURVE",
"490 609 OFFCURVE",
"486 580 CURVE SMOOTH",
"484 561 OFFCURVE",
"483 540 OFFCURVE",
"483 514 CURVE SMOOTH",
"483 486 OFFCURVE",
"491 385 OFFCURVE",
"491 298 CURVE SMOOTH",
"491 149 OFFCURVE",
"458 98 OFFCURVE",
"373 98 CURVE SMOOTH",
"270 98 OFFCURVE",
"209 196 OFFCURVE",
"196 384 CURVE SMOOTH",
"188 495 OFFCURVE",
"166 586 OFFCURVE",
"130 646 CURVE SMOOTH",
"120 664 OFFCURVE",
"100 676 OFFCURVE",
"78 676 CURVE SMOOTH",
"45 676 OFFCURVE",
"18 662 OFFCURVE",
"18 616 CURVE SMOOTH",
"18 557 OFFCURVE",
"64 544 OFFCURVE",
"76 376 CURVE SMOOTH",
"95 114 OFFCURVE",
"199 -22 OFFCURVE",
"373 -22 CURVE SMOOTH"
);
}
);
width = 685;
}
);
unicode = 0055;
},
{
glyphname = V;
lastChange = "2020-07-01 02:41:28 +0000";
layers = (
{
background = {
paths = (
{
closed = 0;
nodes = (
"40 663 LINE",
"182 556 OFFCURVE",
"191 240 OFFCURVE",
"348 63 CURVE",
"402 267 OFFCURVE",
"479 457 OFFCURVE",
"638 684 CURVE SMOOTH"
);
}
);
};
backgroundImage = {
crop = "{{0, 0}, {2004, 204}}";
imagePath = "Images/H_.glif-Regular.tif";
transform = "{5.497, 0, 0, 5.497, -2636, -206}";
};
layerId = "DC44E50C-9AA1-421C-802C-D4D023281425";
paths = (
{
closed = 1;
nodes = (
"331 -29 OFFCURVE",
"354 -29 CURVE SMOOTH",
"376 -29 OFFCURVE",
"393 -22 OFFCURVE",
"401 10 CURVE SMOOTH",
"462 246 OFFCURVE",
"545 427 OFFCURVE",
"687 629 CURVE SMOOTH",
"694 639 OFFCURVE",
"698 651 OFFCURVE",
"698 664 CURVE SMOOTH",
"698 697 OFFCURVE",
"671 724 OFFCURVE",
"638 724 CURVE SMOOTH",
"617 724 OFFCURVE",
"599 714 OFFCURVE",
"588 698 CURVE SMOOTH",
"451 502 OFFCURVE",
"373 330 OFFCURVE",
"311 136 CURVE",
"340 144 LINE",
"264 293 OFFCURVE",
"242 557 OFFCURVE",
"77 690 CURVE SMOOTH",
"67 698 OFFCURVE",
"54 703 OFFCURVE",
"40 703 CURVE SMOOTH",
"7 703 OFFCURVE",
"-20 676 OFFCURVE",
"-20 643 CURVE SMOOTH",
"-20 623 OFFCURVE",
"-10 606 OFFCURVE",
"4 595 CURVE SMOOTH",
"120 507 OFFCURVE",
"158 167 OFFCURVE",
"272 17 CURVE SMOOTH",
"303 -24 OFFCURVE"
);
}
);
width = 678;
}
);
unicode = 0056;
},
{
glyphname = W;
lastChange = "2020-07-02 22:53:42 +0000";
layers = (
{
background = {
paths = (
{
closed = 0;
nodes = (
"108 591 LINE",
"112 460 OFFCURVE",
"165 302 OFFCURVE",
"263 189 CURVE",
"291 342 OFFCURVE",
"370 509 OFFCURVE",
"436 509 CURVE SMOOTH",
"511 509 OFFCURVE",
"532 309 OFFCURVE",
"710 188 CURVE",
"736 287 OFFCURVE",
"712 445 OFFCURVE",
"756 532 CURVE SMOOTH"
);
}
);
};
backgroundImage = {
crop = "{{0, 0}, {1775, 229}}";
imagePath = "Images/B_.glif-Regular.tif";
locked = "1";
transform = "{5.22, 0, 0, 5.22, -6218, -300}";
};
layerId = "DC44E50C-9AA1-421C-802C-D4D023281425";
paths = (
{
closed = 1;
nodes = (
"724.155 156.32 LINE SMOOTH",
"754.752 167.783 OFFCURVE",
"772.442 186.343 OFFCURVE",
"776.909 218.641 CURVE SMOOTH",
"782.09 256.108 OFFCURVE",
"783.635 296.454 OFFCURVE",
"785.07 333.9 CURVE SMOOTH",
"788.931 434.701 OFFCURVE",
"794.748 475.094 OFFCURVE",
"809.106 504.051 CURVE SMOOTH",
"813.508 512.398 OFFCURVE",
"816 521.908 OFFCURVE",
"816 532 CURVE SMOOTH",
"816 565.137 OFFCURVE",
"789.137 592 OFFCURVE",
"756 592 CURVE SMOOTH",
"732.057 592 OFFCURVE",
"711.39 577.976 OFFCURVE",
"701.764 557.693 CURVE SMOOTH",
"671.194 496.067 OFFCURVE",
"667.905 410.22 OFFCURVE",
"665.158 338.493 CURVE SMOOTH",
"664.769 328.348 OFFCURVE",
"664.391 318.465 OFFCURVE",
"663.968 308.866 CURVE",
"626.464 352.121 OFFCURVE",
"600.357 398.763 OFFCURVE",
"576.437 441.501 CURVE SMOOTH",
"531.161 522.391 OFFCURVE",
"498.828 569 OFFCURVE",
"436 569 CURVE SMOOTH",
"355.076 569 OFFCURVE",
"283.199 464.226 OFFCURVE",
"238.255 332.25 CURVE",
"196.31 412.388 OFFCURVE",
"170.678 504.921 OFFCURVE",
"167.976 592.71 CURVE SMOOTH",
"167.071 625.056 OFFCURVE",
"140.565 651 OFFCURVE",
"108 651 CURVE SMOOTH",
"74.863 651 OFFCURVE",
"48 624.137 OFFCURVE",
"48 591 CURVE SMOOTH",
"48 590.267 OFFCURVE",
"48.013 589.536 OFFCURVE",
"48.04 588.809 CURVE SMOOTH",
"52.357 450.115 OFFCURVE",
"104.769 300.666 OFFCURVE",
"186.783 188.507 CURVE SMOOTH",
"206.892 160.721 OFFCURVE",
"232.71 153.798 OFFCURVE",
"265.646 162.797 CURVE SMOOTH",
"275.309 165.437 LINE SMOOTH",
"307.606 174.261 OFFCURVE",
"324.131 193.033 OFFCURVE",
"332.925 225.929 CURVE SMOOTH",
"359.786 325.812 OFFCURVE",
"411.165 431.879 OFFCURVE",
"431.675 447.132 CURVE",
"439.583 436.742 OFFCURVE",
"452.443 417.338 OFFCURVE",
"471.723 382.891 CURVE SMOOTH",
"505.06 323.329 OFFCURVE",
"553.303 237.137 OFFCURVE",
"638.518 166.723 CURVE SMOOTH",
"663.939 145.479 OFFCURVE",
"689.433 143.311 OFFCURVE",
"719.903 154.727 CURVE SMOOTH"
);
}
);
width = 870;
}
);
widthMetricsKey = "87p0";
unicode = 0057;
},
{
glyphname = X;
lastChange = "2020-07-02 22:54:22 +0000";
layers = (
{
background = {
paths = (
{
closed = 0;
nodes = (
"125 552 LINE",
"182 413 OFFCURVE",
"414 274 OFFCURVE",
"487 169 CURVE"
);
},
{
closed = 0;
nodes = (
"468 550 LINE",
"388 471 OFFCURVE",
"287 303 OFFCURVE",
"230 131 CURVE"
);
}
);
};
backgroundImage = {
crop = "{{0, 0}, {1775, 229}}";
imagePath = "Images/B_.glif-Regular.tif";
locked = "1";
transform = "{5.22, 0, 0, 5.22, -7111, -300}";
};
layerId = "DC44E50C-9AA1-421C-802C-D4D023281425";
paths = (
{
closed = 1;
nodes = (
"520.137 109 OFFCURVE",
"547 135.863 OFFCURVE",
"547 169 CURVE SMOOTH",
"547 182.031 OFFCURVE",
"542.846 194.091 OFFCURVE",
"535.79 203.929 CURVE SMOOTH",
"501.733 252.59 OFFCURVE",
"440.445 305.522 OFFCURVE",
"381.012 356.852 CURVE SMOOTH",
"294.115 431.901 OFFCURVE",
"209.798 504.723 OFFCURVE",
"180.956 573.698 CURVE SMOOTH",
"172.259 596.111 OFFCURVE",
"150.485 612 OFFCURVE",
"125 612 CURVE SMOOTH",
"91.863 612 OFFCURVE",
"65 585.137 OFFCURVE",
"65 552 CURVE SMOOTH",
"65 543.397 OFFCURVE",
"66.811 535.218 OFFCURVE",
"70.072 527.821 CURVE SMOOTH",
"109.832 432.501 OFFCURVE",
"215.662 341.099 OFFCURVE",
"302.576 266.034 CURVE SMOOTH",
"361.973 214.735 OFFCURVE",
"411.89 171.625 OFFCURVE",
"437.336 135.323 CURVE SMOOTH",
"448.13 119.436 OFFCURVE",
"466.346 109 OFFCURVE",
"487 109 CURVE SMOOTH"
);
},
{
closed = 1;
nodes = (
"257.006 71 OFFCURVE",
"279.845 88.843 OFFCURVE",
"287.372 113.382 CURVE SMOOTH",
"338.028 265.608 OFFCURVE",
"430.05 428.199 OFFCURVE",
"510.157 507.306 CURVE SMOOTH",
"521.173 518.185 OFFCURVE",
"528 533.295 OFFCURVE",
"528 550 CURVE SMOOTH",
"528 583.137 OFFCURVE",
"501.137 610 OFFCURVE",
"468 610 CURVE SMOOTH",
"451.549 610 OFFCURVE",
"436.645 603.379 OFFCURVE",
"425.806 592.657 CURVE SMOOTH",
"333.727 501.708 OFFCURVE",
"229.239 318.718 OFFCURVE",
"173.501 151.244 CURVE SMOOTH",
"171.235 144.919 OFFCURVE",
"170 138.104 OFFCURVE",
"170 131 CURVE SMOOTH",
"170 97.863 OFFCURVE",
"196.863 71 OFFCURVE",
"230 71 CURVE SMOOTH"
);
}
);
width = 600;
}
);
unicode = 0058;
},
{
glyphname = Y;
lastChange = "2020-07-02 22:55:36 +0000";
layers = (
{
background = {
paths = (
{
closed = 0;
nodes = (
"66 623 LINE",
"161 521 OFFCURVE",
"262 484 OFFCURVE",
"404 346 CURVE SMOOTH"
);
},
{
closed = 0;
nodes = (
"553 599 LINE",
"440 432 OFFCURVE",
"372 216 OFFCURVE",
"372 32 CURVE SMOOTH"
);
}
);
};
backgroundImage = {
crop = "{{0, 0}, {1775, 229}}";
imagePath = "Images/B_.glif-Regular.tif";
locked = "1";
transform = "{5.22, 0, 0, 5.22, -7726, -269}";
};
layerId = "DC44E50C-9AA1-421C-802C-D4D023281425";
paths = (
{
closed = 1;
nodes = (
"405 -28 OFFCURVE",
"432 -1 OFFCURVE",
"432 32 CURVE SMOOTH",
"432 206 OFFCURVE",
"497 408 OFFCURVE",
"602 565 CURVE SMOOTH",
"609 575 OFFCURVE",
"613 586 OFFCURVE",
"613 599 CURVE SMOOTH",
"613 632 OFFCURVE",
"586 659 OFFCURVE",
"553 659 CURVE SMOOTH",
"532 659 OFFCURVE",
"513 648 OFFCURVE",
"503 632 CURVE SMOOTH",
"385 457 OFFCURVE",
"312 228 OFFCURVE",
"312 32 CURVE SMOOTH",
"312 -1 OFFCURVE",
"339 -28 OFFCURVE",
"372 -28 CURVE SMOOTH"
);
},
{
closed = 1;
nodes = (
"437 286 OFFCURVE",
"464 313 OFFCURVE",
"464 346 CURVE SMOOTH",
"464 363 OFFCURVE",
"457 378 OFFCURVE",
"446 389 CURVE SMOOTH",
"370 462 OFFCURVE",
"305 509 OFFCURVE",
"249 549 CURVE SMOOTH",
"196 587 OFFCURVE",
"153 618 OFFCURVE",
"110 664 CURVE SMOOTH",
"99 676 OFFCURVE",
"83 683 OFFCURVE",
"66 683 CURVE SMOOTH",
"33 683 OFFCURVE",
"6 656 OFFCURVE",
"6 623 CURVE SMOOTH",
"6 607 OFFCURVE",
"12 593 OFFCURVE",
"22 582 CURVE SMOOTH",
"73 527 OFFCURVE",
"126 490 OFFCURVE",
"180 451 CURVE SMOOTH",
"235 411 OFFCURVE",
"293 370 OFFCURVE",
"362 303 CURVE SMOOTH",
"373 292 OFFCURVE",
"388 286 OFFCURVE",
"404 286 CURVE SMOOTH"
);
}
);
width = 635;
}
);
unicode = 0059;
},
{
glyphname = Z;
lastChange = "2020-07-02 22:55:26 +0000";
layers = (
{
background = {
paths = (
{
closed = 0;
nodes = (
"78 568 LINE",
"145 605 OFFCURVE",
"217 621 OFFCURVE",
"268 621 CURVE SMOOTH",
"370 621 OFFCURVE",
"410 596 OFFCURVE",
"410 541 CURVE SMOOTH",
"410 429 OFFCURVE",
"203 266 OFFCURVE",
"203 151 CURVE SMOOTH",
"203 113 OFFCURVE",
"219 90 OFFCURVE",
"286 90 CURVE SMOOTH",
"394 90 OFFCURVE",
"513 114 OFFCURVE",
"633 100 CURVE"
);
}
);
};
backgroundImage = {
crop = "{{0, 0}, {1775, 229}}";
imagePath = "Images/B_.glif-Regular.tif";
locked = "1";
transform = "{5.22, 0, 0, 5.22, -8425, -300}";
};
layerId = "DC44E50C-9AA1-421C-802C-D4D023281425";
paths = (
{
closed = 1;
nodes = (
"329 30 OFFCURVE",
"374 34 OFFCURVE",
"417 37 CURVE SMOOTH",
"463 41 OFFCURVE",
"507 44 OFFCURVE",
"552 44 CURVE SMOOTH",
"578 44 OFFCURVE",
"603 43 OFFCURVE",
"625 40 CURVE SMOOTH",
"628 40 OFFCURVE",
"630 40 OFFCURVE",
"633 40 CURVE SMOOTH",
"666 40 OFFCURVE",
"693 67 OFFCURVE",
"693 100 CURVE SMOOTH",
"693 131 OFFCURVE",
"669 157 OFFCURVE",
"639 160 CURVE SMOOTH",
"612 163 OFFCURVE",
"583 164 OFFCURVE",
"552 164 CURVE SMOOTH",
"502 164 OFFCURVE",
"453 160 OFFCURVE",
"408 157 CURVE SMOOTH",
"364 153 OFFCURVE",
"324 150 OFFCURVE",
"286 150 CURVE SMOOTH",
"273 150 OFFCURVE",
"266 148 OFFCURVE",
"263 146 CURVE",
"263 147 OFFCURVE",
"263 149 OFFCURVE",
"263 151 CURVE SMOOTH",
"263 178 OFFCURVE",
"285 218 OFFCURVE",
"356 313 CURVE SMOOTH",
"441 427 OFFCURVE",
"470 480 OFFCURVE",
"470 541 CURVE SMOOTH",
"470 638 OFFCURVE",
"395 681 OFFCURVE",
"268 681 CURVE SMOOTH",
"201 681 OFFCURVE",
"117 658 OFFCURVE",
"50 621 CURVE SMOOTH",
"31 611 OFFCURVE",
"18 591 OFFCURVE",
"18 568 CURVE SMOOTH",
"18 535 OFFCURVE",
"45 508 OFFCURVE",
"78 508 CURVE SMOOTH",
"89 508 OFFCURVE",
"99 511 OFFCURVE",
"108 516 CURVE SMOOTH",
"160 544 OFFCURVE",
"219 561 OFFCURVE",
"268 561 CURVE SMOOTH",
"341 561 OFFCURVE",
"350 552 OFFCURVE",
"350 541 CURVE SMOOTH",
"350 515 OFFCURVE",
"329 477 OFFCURVE",
"259 384 CURVE SMOOTH",
"173 268 OFFCURVE",
"143 213 OFFCURVE",
"143 151 CURVE SMOOTH",
"143 69 OFFCURVE",
"198 30 OFFCURVE",
"286 30 CURVE SMOOTH"
);
}
);
width = 711;
}
);
unicode = 005A;
},
{
glyphname = a;
lastChange = "2020-07-01 02:35:47 +0000";
layers = (
{
background = {
paths = (
{
closed = 0;
nodes = (
"340 462 LINE",
"267 461 OFFCURVE",
"95 334 OFFCURVE",
"95 153 CURVE SMOOTH",
"95 83 OFFCURVE",
"119 61 OFFCURVE",
"181 61 CURVE SMOOTH",
"281 61 OFFCURVE",
"401 190 OFFCURVE",
"432 418 CURVE",
"465 271 OFFCURVE",
"487 183 OFFCURVE",
"579 71 CURVE"
);
}
);
};
backgroundImage = {
crop = "{{0, 0}, {930, 210}}";
imagePath = "Images/h.001.glif-Regular.tif";
locked = "1";
transform = "{8.582, 0, 0, 8.582, -803, -603}";
};
layerId = "DC44E50C-9AA1-421C-802C-D4D023281425";
paths = (
{
closed = 1;
nodes = (
"375 423 OFFCURVE",
"395 440 OFFCURVE",
"423 440 CURVE SMOOTH",
"460 440 OFFCURVE",
"495 411 OFFCURVE",
"505 370 CURVE SMOOTH",
"530 262 OFFCURVE",
"554 196 OFFCURVE",
"625 109 CURVE SMOOTH",
"634 99 OFFCURVE",
"639 86 OFFCURVE",
"639 71 CURVE SMOOTH",
"639 38 OFFCURVE",
"612 11 OFFCURVE",
"579 11 CURVE SMOOTH",
"560 11 OFFCURVE",
"543 20 OFFCURVE",
"532 33 CURVE SMOOTH",
"477 101 OFFCURVE",
"442 162 OFFCURVE",
"412 243 CURVE",
"440 243 LINE",
"388 94 OFFCURVE",
"289 1 OFFCURVE",
"181 1 CURVE SMOOTH",
"83 1 OFFCURVE",
"35 52 OFFCURVE",
"35 153 CURVE SMOOTH",
"35 324 OFFCURVE",
"195 520 OFFCURVE",
"339 522 CURVE SMOOTH",
"339 522 OFFCURVE",
"340 522 OFFCURVE",
"340 522 CURVE SMOOTH",
"373 522 OFFCURVE",
"400 495 OFFCURVE",
"400 462 CURVE SMOOTH",
"400 425 OFFCURVE",
"373 402 OFFCURVE",
"341 402 CURVE SMOOTH",
"265 401 OFFCURVE",
"155 257 OFFCURVE",
"155 153 CURVE SMOOTH",
"155 117 OFFCURVE",
"152 121 OFFCURVE",
"181 121 CURVE SMOOTH",
"256 121 OFFCURVE",
"341 242 OFFCURVE",
"369 401 CURVE SMOOTH"
);
}
);
width = 644;
}
);
unicode = 0061;
},
{
glyphname = b;
lastChange = "2020-07-02 22:56:22 +0000";
layers = (
{
background = {
paths = (
{
closed = 0;
nodes = (
"143 739 LINE",
"157 644 OFFCURVE",
"108 407 OFFCURVE",
"155 96 CURVE",
"172 257 OFFCURVE",
"257 358 OFFCURVE",
"344 358 CURVE SMOOTH",
"408 358 OFFCURVE",
"446 312 OFFCURVE",
"446 231 CURVE SMOOTH",
"446 95 OFFCURVE",
"283 15 OFFCURVE",
"144 51 CURVE SMOOTH"
);
}
);
};
backgroundImage = {
crop = "{{0, 0}, {2342, 468}}";
imagePath = "Images/b.glif-Regular.tif";
transform = "{3.44215, 0, 0, 3.44215, -71, -626}";
};
layerId = "DC44E50C-9AA1-421C-802C-D4D023281425";
paths = (
{
closed = 1;
nodes = (
"375.267 -17.618 OFFCURVE",
"506 91.281 OFFCURVE",
"506 231 CURVE SMOOTH",
"506 342.706 OFFCURVE",
"443.669 418 OFFCURVE",
"344 418 CURVE SMOOTH",
"287.549 418 OFFCURVE",
"236.01 391.719 OFFCURVE",
"194.46 346.542 CURVE",
"194.222 359.525 OFFCURVE",
"194.103 372.606 OFFCURVE",
"194.103 385.794 CURVE SMOOTH",
"194.103 461.103 OFFCURVE",
"197.888 527.376 OFFCURVE",
"201.143 584.393 CURVE SMOOTH",
"203.495 625.571 OFFCURVE",
"205.617 662.738 OFFCURVE",
"205.617 693.462 CURVE SMOOTH",
"205.617 714.517 OFFCURVE",
"204.617 731.94 OFFCURVE",
"202.507 746.723 CURVE SMOOTH",
"198.718 776.212 OFFCURVE",
"173.52 799 OFFCURVE",
"143 799 CURVE SMOOTH",
"109.863 799 OFFCURVE",
"83 772.137 OFFCURVE",
"83 739 CURVE SMOOTH",
"83 735.746 OFFCURVE",
"83.259 732.553 OFFCURVE",
"83.758 729.44 CURVE SMOOTH",
"84.989 720.65 OFFCURVE",
"85.617 708.939 OFFCURVE",
"85.617 693.462 CURVE SMOOTH",
"85.617 666.161 OFFCURVE",
"83.69 632.412 OFFCURVE",
"81.338 591.234 CURVE SMOOTH",
"78.083 534.217 OFFCURVE",
"74.103 464.526 OFFCURVE",
"74.103 385.794 CURVE SMOOTH",
"74.103 281.671 OFFCURVE",
"81.272 182.333 OFFCURVE",
"95.674 87.034 CURVE",
"88.476 77.007 OFFCURVE",
"84 64.526 OFFCURVE",
"84 51 CURVE SMOOTH",
"84 22.571 OFFCURVE",
"103.772 -1.24 OFFCURVE",
"130.315 -7.432 CURVE SMOOTH",
"156.37 -14.048 OFFCURVE",
"185.207 -17.618 OFFCURVE",
"212.63 -17.618 CURVE SMOOTH"
);
},
{
closed = 1;
nodes = (
"231.576 215.906 OFFCURVE",
"288.824 298 OFFCURVE",
"344 298 CURVE SMOOTH",
"371.309 298 OFFCURVE",
"386 280.948 OFFCURVE",
"386 231 CURVE SMOOTH",
"386 161.267 OFFCURVE",
"311.555 103.81 OFFCURVE",
"216.199 102.409 CURVE"
);
}
);
width = 550;
}
);
unicode = 0062;
},
{
glyphname = c;
lastChange = "2020-07-02 22:56:30 +0000";
layers = (
{
background = {
paths = (
{
closed = 0;
nodes = (
"308 357 LINE",
"302 378 OFFCURVE",
"288 382 OFFCURVE",
"270 382 CURVE SMOOTH",
"187 382 OFFCURVE",
"108 304 OFFCURVE",
"108 212 CURVE SMOOTH",
"108 129 OFFCURVE",
"181 74 OFFCURVE",
"274 74 CURVE SMOOTH",
"320 74 OFFCURVE",
"381 91 OFFCURVE",
"411 116 CURVE SMOOTH"
);
}
);
};
backgroundImage = {
crop = "{{0, 0}, {2342, 468}}";
imagePath = "Images/b.glif-Regular.tif";
locked = "1";
transform = "{3.442, 0, 0, 3.442, -622, -626}";
};
layerId = "DC44E50C-9AA1-421C-802C-D4D023281425";
paths = (
{
closed = 1;
nodes = (
"336.059 14 OFFCURVE",
"409.665 37.135 OFFCURVE",
"448.873 69.461 CURVE SMOOTH",
"462.376 80.463 OFFCURVE",
"471 97.225 OFFCURVE",
"471 116 CURVE SMOOTH",
"471 149.137 OFFCURVE",
"444.137 176 OFFCURVE",
"411 176 CURVE SMOOTH",
"396.297 176 OFFCURVE",
"382.83 170.712 OFFCURVE",
"372.396 161.933 CURVE SMOOTH",
"354.618 147.296 OFFCURVE",
"309.182 134 OFFCURVE",
"274 134 CURVE SMOOTH",
"209.357 134 OFFCURVE",
"168 167.025 OFFCURVE",
"168 212 CURVE SMOOTH",
"168 265.317 OFFCURVE",
"211.818 314.978 OFFCURVE",
"259.758 321.319 CURVE",
"270.689 306.564 OFFCURVE",
"288.228 297 OFFCURVE",
"308 297 CURVE SMOOTH",
"341.137 297 OFFCURVE",
"368 323.863 OFFCURVE",
"368 357 CURVE SMOOTH",
"368 363.423 OFFCURVE",
"366.99 369.611 OFFCURVE",
"365.122 375.413 CURVE SMOOTH",
"351.788 419.242 OFFCURVE",
"316.715 442 OFFCURVE",
"270 442 CURVE SMOOTH",
"151.452 442 OFFCURVE",
"48 334.515 OFFCURVE",
"48 212 CURVE SMOOTH",
"48 97.768 OFFCURVE",
"144.811 14 OFFCURVE",
"274 14 CURVE SMOOTH"
);
}
);
width = 510;
}
);
unicode = 0063;
},
{
glyphname = d;
lastChange = "2020-07-01 02:39:57 +0000";
layers = (
{
background = {
paths = (
{
closed = 0;
nodes = (
"333 429 LINE",
"188 445 OFFCURVE",
"100 378 OFFCURVE",
"100 269 CURVE SMOOTH",
"100 145 OFFCURVE",
"197 51 OFFCURVE",
"293 51 CURVE SMOOTH",
"453 51 OFFCURVE",
"554 411 OFFCURVE",
"562 877 CURVE",
"549 607 OFFCURVE",
"522 456 OFFCURVE",
"521 281 CURVE SMOOTH",
"520 176 OFFCURVE",
"546 90 OFFCURVE",
"609 57 CURVE SMOOTH"
);
}
);
};
backgroundImage = {
crop = "{{0, 0}, {930, 210}}";
imagePath = "Images/h.001.glif-Regular.tif";
locked = "1";
transform = "{8.582, 0, 0, 8.582, -7158, -607}";
};
layerId = "DC44E50C-9AA1-421C-802C-D4D023281425";
paths = (
{
closed = 1;
nodes = (
"376 -9 OFFCURVE",
"455 44 OFFCURVE",
"501 226 CURVE",
"473 235 LINE",
"463 111 OFFCURVE",
"526 -3 OFFCURVE",
"609 -3 CURVE SMOOTH",
"642 -3 OFFCURVE",
"669 24 OFFCURVE",
"669 50 CURVE SMOOTH",
"669 127 OFFCURVE",
"581 120 OFFCURVE",
"581 275 CURVE SMOOTH",
"581 494 OFFCURVE",
"612 573 OFFCURVE",
"620 809 CURVE SMOOTH",
"622 855 OFFCURVE",
"601 878 OFFCURVE",
"558 878 CURVE SMOOTH",
"523 878 OFFCURVE",
"501 859 OFFCURVE",
"498 812 CURVE SMOOTH",
"478 465 OFFCURVE",
"392 111 OFFCURVE",
"281 111 CURVE SMOOTH",
"224 111 OFFCURVE",
"160 185 OFFCURVE",
"160 269 CURVE SMOOTH",
"160 334 OFFCURVE",
"206 372 OFFCURVE",
"292 371 CURVE SMOOTH",
"356 371 OFFCURVE",
"397 339 OFFCURVE",
"423 339 CURVE SMOOTH",
"456 339 OFFCURVE",
"483 366 OFFCURVE",
"483 399 CURVE SMOOTH",
"483 452 OFFCURVE",
"397 491 OFFCURVE",
"292 491 CURVE SMOOTH",
"141 492 OFFCURVE",
"40 403 OFFCURVE",
"40 269 CURVE SMOOTH",
"40 120 OFFCURVE",
"157 -9 OFFCURVE",
"293 -9 CURVE SMOOTH"
);
}
);
width = 691;
}
);
unicode = 0064;
},
{
glyphname = e;
lastChange = "2020-07-01 02:37:41 +0000";
layers = (
{
background = {
paths = (
{
closed = 0;
nodes = (
"142 230 LINE",
"257 222 OFFCURVE",
"414 285 OFFCURVE",
"414 373 CURVE SMOOTH",
"414 441 OFFCURVE",
"384 474 OFFCURVE",
"313 474 CURVE SMOOTH",
"205 474 OFFCURVE",
"95 331 OFFCURVE",
"95 188 CURVE SMOOTH",
"95 93 OFFCURVE",
"161 38 OFFCURVE",
"245 38 CURVE SMOOTH",
"313 38 OFFCURVE",
"394 47 OFFCURVE",
"489 81 CURVE SMOOTH"
);
}
);
};
backgroundImage = {
crop = "{{0, 0}, {930, 210}}";
imagePath = "Images/h.001.glif-Regular.tif";
locked = "1";
transform = "{8.582, 0, 0, 8.582, -2521, -603}";
};
layerId = "DC44E50C-9AA1-421C-802C-D4D023281425";
paths = (
{
closed = 1;
nodes = (
"320 170 OFFCURVE",
"474 249 OFFCURVE",
"474 373 CURVE SMOOTH",
"474 476 OFFCURVE",
"415 534 OFFCURVE",
"313 534 CURVE SMOOTH",
"170 534 OFFCURVE",
"35 364 OFFCURVE",
"35 188 CURVE SMOOTH",
"35 65 OFFCURVE",
"122 -22 OFFCURVE",
"245 -22 CURVE SMOOTH",
"316 -22 OFFCURVE",
"407 -12 OFFCURVE",
"508 24 CURVE SMOOTH",
"532 32 OFFCURVE",
"549 54 OFFCURVE",
"549 81 CURVE SMOOTH",
"549 114 OFFCURVE",
"522 141 OFFCURVE",
"489 141 CURVE SMOOTH",
"481 141 OFFCURVE",
"474 140 OFFCURVE",
"468 137 CURVE SMOOTH",
"393 111 OFFCURVE",
"322 98 OFFCURVE",
"245 98 CURVE SMOOTH",
"189 98 OFFCURVE",
"155 131 OFFCURVE",
"155 187 CURVE SMOOTH",
"155 339 OFFCURVE",
"228 414 OFFCURVE",
"313 414 CURVE SMOOTH",
"344 414 OFFCURVE",
"354 401 OFFCURVE",
"354 373 CURVE SMOOTH",
"354 328 OFFCURVE",
"271 288 OFFCURVE",
"145 288 CURVE SMOOTH",
"103 288 OFFCURVE",
"80 262 OFFCURVE",
"80 218 CURVE SMOOTH",
"80 189 OFFCURVE",
"96 170 OFFCURVE",
"138 170 CURVE SMOOTH"
);
}
);
width = 564;
}
);
unicode = 0065;
},
{
glyphname = f;
lastChange = "2020-07-01 02:38:27 +0000";
layers = (
{
background = {
paths = (
{
closed = 0;
nodes = (
"213 791 LINE",
"125 719 OFFCURVE",
"96 615 OFFCURVE",
"96 474 CURVE SMOOTH",
"96 270 OFFCURVE",
"210 77 OFFCURVE",
"219 -196 CURVE SMOOTH"
);
},
{
closed = 0;
nodes = (
"443 445 LINE",
"332 433 OFFCURVE",
"229 394 OFFCURVE",
"141 347 CURVE SMOOTH"
);
}
);
};
backgroundImage = {
crop = "{{0, 0}, {930, 210}}";
imagePath = "Images/h.001.glif-Regular.tif";
locked = "1";
transform = "{8.582, 0, 0, 8.582, -4232, -643}";
};
layerId = "DC44E50C-9AA1-421C-802C-D4D023281425";
paths = (
{
closed = 1;
nodes = (
"198 -257 OFFCURVE",
"220 -229 OFFCURVE",
"220 -183 CURVE SMOOTH",
"220 124 OFFCURVE",
"178 277 OFFCURVE",
"178 413 CURVE SMOOTH",
"178 540 OFFCURVE",
"208 671 OFFCURVE",
"303 731 CURVE SMOOTH",
"325 745 OFFCURVE",
"338 764 OFFCURVE",
"338 791 CURVE SMOOTH",
"338 824 OFFCURVE",
"323 843 OFFCURVE",
"284 843 CURVE SMOOTH",
"263 843 OFFCURVE",
"250 840 OFFCURVE",
"225 824 CURVE SMOOTH",
"101 746 OFFCURVE",
"50 568 OFFCURVE",
"50 405 CURVE SMOOTH",
"50 172 OFFCURVE",
"92 161 OFFCURVE",
"92 -192 CURVE SMOOTH",
"92 -224 OFFCURVE",
"112 -253 OFFCURVE",
"144 -257 CURVE SMOOTH"
);
},
{
closed = 1;
nodes = (
"237 331 OFFCURVE",
"308 355 OFFCURVE",
"369 361 CURVE SMOOTH",
"413 365 OFFCURVE",
"433 384 OFFCURVE",
"433 418 CURVE SMOOTH",
"433 449 OFFCURVE",
"413 470 OFFCURVE",
"370 470 CURVE SMOOTH",
"327 470 OFFCURVE",
"215 451 OFFCURVE",
"143 416 CURVE SMOOTH",
"106 397 OFFCURVE",
"87 373 OFFCURVE",
"87 339 CURVE SMOOTH",
"87 308 OFFCURVE",
"111 288 OFFCURVE",
"139 288 CURVE SMOOTH",
"150 288 OFFCURVE",
"162 291 OFFCURVE",
"173 297 CURVE SMOOTH"
);
}
);
width = 434;
},
{
associatedMasterId = "DC44E50C-9AA1-421C-802C-D4D023281425";
background = {
paths = (
{
closed = 0;
nodes = (
"219 791 LINE",
"131 719 OFFCURVE",
"102 615 OFFCURVE",
"102 474 CURVE SMOOTH",
"102 270 OFFCURVE",
"216 77 OFFCURVE",
"225 -196 CURVE SMOOTH"
);
},
{
closed = 0;
nodes = (
"449 445 LINE",
"338 433 OFFCURVE",
"235 394 OFFCURVE",
"147 347 CURVE SMOOTH"
);
}
);
};
backgroundImage = {
crop = "{{0, 0}, {930, 210}}";
imagePath = "Images/h.001.glif-Regular.tif";
locked = "1";
transform = "{8.582, 0, 0, 8.582, -4226, -643}";
};
layerId = "074BB056-315E-496B-8952-8B259DC00279";
name = "Jun 30 20, 16:45";
paths = (
{
closed = 1;
nodes = (
"285 93 OFFCURVE",
"169 295 OFFCURVE",
"169 482 CURVE SMOOTH",
"169 619 OFFCURVE",
"190.343 689.845 OFFCURVE",
"256.666 744.294 CURVE SMOOTH",
"270.288 755.292 OFFCURVE",
"279 772.129 OFFCURVE",
"279 800 CURVE SMOOTH",
"279 828 OFFCURVE",
"265 851 OFFCURVE",
"225 851 CURVE SMOOTH",
"204.365 851 OFFCURVE",
"190.955 845.76 OFFCURVE",
"168 827 CURVE SMOOTH",
"84.864 758.519 OFFCURVE",
"42 644.594 OFFCURVE",
"42 474 CURVE SMOOTH",
"42 368.07 OFFCURVE",
"70.365 264.959 OFFCURVE",
"98.646 162.155 CURVE SMOOTH",
"129.323 50.644 OFFCURVE",
"160.547 -62.862 OFFCURVE",
"165.025 -197.753 CURVE SMOOTH",
"165.953 -230.079 OFFCURVE",
"192.449 -256 OFFCURVE",
"225 -256 CURVE SMOOTH",
"258.137 -256 OFFCURVE",
"285 -229.137 OFFCURVE",
"285 -196 CURVE SMOOTH",
"285 -195.198 OFFCURVE",
"285 -194 OFFCURVE",
"284.953 -193.605 CURVE SMOOTH"
);
},
{
closed = 1;
nodes = (
"243 331 OFFCURVE",
"314 355 OFFCURVE",
"375 361 CURVE SMOOTH",
"419 365 OFFCURVE",
"439 384 OFFCURVE",
"439 418 CURVE SMOOTH",
"439 449 OFFCURVE",
"419 470 OFFCURVE",
"376 470 CURVE SMOOTH",
"333 470 OFFCURVE",
"221 451 OFFCURVE",
"149 416 CURVE SMOOTH",
"112 397 OFFCURVE",
"93 373 OFFCURVE",
"93 339 CURVE SMOOTH",
"93 296 OFFCURVE",
"138 275 OFFCURVE",
"179 297 CURVE SMOOTH"
);
}
);
width = 470;
}
);
unicode = 0066;
},
{
glyphname = g;
lastChange = "2020-07-01 02:39:22 +0000";
layers = (
{
background = {
paths = (
{
closed = 0;
nodes = (
"390 400 LINE",
"362 444 OFFCURVE",
"328 464 OFFCURVE",
"282 464 CURVE SMOOTH",
"180 464 OFFCURVE",
"99 371 OFFCURVE",
"99 285 CURVE SMOOTH",
"99 213 OFFCURVE",
"153 163 OFFCURVE",
"266 163 CURVE SMOOTH",
"392 163 OFFCURVE",
"506 252 OFFCURVE",
"477 431 CURVE",
"477 267 OFFCURVE",
"549 105 OFFCURVE",
"549 -217 CURVE SMOOTH",
"549 -321 OFFCURVE",
"516 -375 OFFCURVE",
"429 -375 CURVE SMOOTH",
"280 -375 OFFCURVE",
"130 -245 OFFCURVE",
"139 -139 CURVE SMOOTH"
);
}
);
};
backgroundImage = {
crop = "{{0, 0}, {930, 210}}";
imagePath = "Images/h.001.glif-Regular.tif";
transform = "{8.582, 0, 0, 8.582, -5570, -607}";
};
layerId = "DC44E50C-9AA1-421C-802C-D4D023281425";
paths = (
{
closed = 1;
nodes = (
"516 469 OFFCURVE",
"536 446 OFFCURVE",
"539 411 CURVE SMOOTH",
"553 234 OFFCURVE",
"609 148 OFFCURVE",
"609 -63 CURVE SMOOTH",
"609 -188 OFFCURVE",
"540 -264 OFFCURVE",
"419 -264 CURVE SMOOTH",
"184 -264 OFFCURVE",
"89 -127 OFFCURVE",
"89 -32 CURVE SMOOTH",
"89 20 OFFCURVE",
"126 41 OFFCURVE",
"154 41 CURVE SMOOTH",
"187 41 OFFCURVE",
"199 25 OFFCURVE",
"199 -8 CURVE SMOOTH",
"199 -77 OFFCURVE",
"302 -144 OFFCURVE",
"409 -144 CURVE SMOOTH",
"468 -144 OFFCURVE",
"489 -116 OFFCURVE",
"489 -65 CURVE SMOOTH",
"489 74 OFFCURVE",
"450 141 OFFCURVE",
"440 236 CURVE",
"483 246 LINE",
"458 135 OFFCURVE",
"351 103 OFFCURVE",
"266 103 CURVE SMOOTH",
"127 103 OFFCURVE",
"39 173 OFFCURVE",
"39 285 CURVE SMOOTH",
"39 411 OFFCURVE",
"154 524 OFFCURVE",
"282 524 CURVE SMOOTH",
"375 524 OFFCURVE",
"437 468 OFFCURVE",
"437 398 CURVE SMOOTH",
"437 379 OFFCURVE",
"420 356 OFFCURVE",
"390 356 CURVE SMOOTH",
"345 356 OFFCURVE",
"338 404 OFFCURVE",
"282 404 CURVE SMOOTH",
"220 404 OFFCURVE",
"159 344 OFFCURVE",
"159 285 CURVE SMOOTH",
"159 245 OFFCURVE",
"191 223 OFFCURVE",
"266 223 CURVE SMOOTH",
"365 223 OFFCURVE",
"431 269 OFFCURVE",
"431 400 CURVE SMOOTH",
"430 445 OFFCURVE",
"442 465 OFFCURVE",
"477 466 CURVE SMOOTH"
);
}
);
width = 630;
},
{
associatedMasterId = "DC44E50C-9AA1-421C-802C-D4D023281425";
background = {
paths = (
{
closed = 0;
nodes = (
"391 400 LINE",
"363 444 OFFCURVE",
"329 464 OFFCURVE",
"283 464 CURVE SMOOTH",
"181 464 OFFCURVE",
"100 371 OFFCURVE",
"100 285 CURVE SMOOTH",
"100 213 OFFCURVE",
"154 163 OFFCURVE",
"267 163 CURVE SMOOTH",
"393 163 OFFCURVE",
"507 252 OFFCURVE",
"478 431 CURVE",
"478 267 OFFCURVE",
"550 105 OFFCURVE",
"550 -217 CURVE SMOOTH",
"550 -321 OFFCURVE",
"517 -375 OFFCURVE",
"430 -375 CURVE SMOOTH",
"281 -375 OFFCURVE",
"131 -245 OFFCURVE",
"140 -139 CURVE SMOOTH"
);
}
);
};
backgroundImage = {
crop = "{{0, 0}, {930, 210}}";
imagePath = "Images/h.001.glif-Regular.tif";
locked = "1";
transform = "{8.582, 0, 0, 8.582, -5569, -607}";
};
layerId = "4C5F36B2-0146-4542-8D1F-CBF697C1CC67";
name = "long descender";
paths = (
{
closed = 1;
nodes = (
"517 469 OFFCURVE",
"536 446 OFFCURVE",
"542 391 CURVE SMOOTH",
"546 350 OFFCURVE",
"555 277 OFFCURVE",
"564 226 CURVE SMOOTH",
"584 115 OFFCURVE",
"610 -24 OFFCURVE",
"610 -217 CURVE SMOOTH",
"610 -359 OFFCURVE",
"548 -435 OFFCURVE",
"430 -435 CURVE SMOOTH",
"250 -435 OFFCURVE",
"68 -281 OFFCURVE",
"80 -135 CURVE SMOOTH",
"82 -104 OFFCURVE",
"108 -79 OFFCURVE",
"140 -79 CURVE SMOOTH",
"173 -79 OFFCURVE",
"200 -106 OFFCURVE",
"200 -139 CURVE SMOOTH",
"200 -236 OFFCURVE",
"313 -315 OFFCURVE",
"430 -315 CURVE SMOOTH",
"475 -315 OFFCURVE",
"490 -297 OFFCURVE",
"490 -217 CURVE SMOOTH",
"490 -41 OFFCURVE",
"468 83 OFFCURVE",
"441 236 CURVE",
"484 246 LINE",
"459 135 OFFCURVE",
"352 103 OFFCURVE",
"267 103 CURVE SMOOTH",
"128 103 OFFCURVE",
"40 173 OFFCURVE",
"40 285 CURVE SMOOTH",
"40 411 OFFCURVE",
"155 524 OFFCURVE",
"283 524 CURVE SMOOTH",
"376 524 OFFCURVE",
"438 468 OFFCURVE",
"438 398 CURVE SMOOTH",
"438 379 OFFCURVE",
"421 356 OFFCURVE",
"391 356 CURVE SMOOTH",
"346 356 OFFCURVE",
"339 404 OFFCURVE",
"283 404 CURVE SMOOTH",
"220.695 404 OFFCURVE",
"160 344.378 OFFCURVE",
"160 285 CURVE SMOOTH",
"160 245.251 OFFCURVE",
"192.195 223 OFFCURVE",
"267 223 CURVE SMOOTH",
"366 223 OFFCURVE",
"432 269 OFFCURVE",
"432 400 CURVE SMOOTH",
"431 445 OFFCURVE",
"443 465 OFFCURVE",
"478 466 CURVE SMOOTH"
);
}
);
width = 637;
}
);
unicode = 0067;
},
{
glyphname = h;
lastChange = "2020-07-01 02:34:44 +0000";
layers = (
{
background = {
paths = (
{
closed = 0;
nodes = (
"156 874 LINE",
"189 616 OFFCURVE",
"107 457 OFFCURVE",
"125 19 CURVE",
"243 309 OFFCURVE",
"374 472 OFFCURVE",
"472 472 CURVE SMOOTH",
"589 472 OFFCURVE",
"524 131 OFFCURVE",
"621 9 CURVE SMOOTH"
);
}
);
};
backgroundImage = {
crop = "{{0, 0}, {930, 210}}";
imagePath = "Images/h.001.glif-Regular.tif";
locked = "1";
transform = "{8.58244, 0, 0, 8.58244, -77, -603}";
};
layerId = "DC44E50C-9AA1-421C-802C-D4D023281425";
paths = (
{
closed = 1;
nodes = (
"654 -51 OFFCURVE",
"681 -24 OFFCURVE",
"681 9 CURVE SMOOTH",
"681 23 OFFCURVE",
"676 36 OFFCURVE",
"668 47 CURVE SMOOTH",
"643 78 OFFCURVE",
"630 132 OFFCURVE",
"616 268 CURVE SMOOTH",
"600 433 OFFCURVE",
"576 532 OFFCURVE",
"472 532 CURVE SMOOTH",
"378 532 OFFCURVE",
"280 443 OFFCURVE",
"186 283 CURVE",
"194 395 OFFCURVE",
"224 535 OFFCURVE",
"224 639 CURVE SMOOTH",
"224 684 OFFCURVE",
"221 727 OFFCURVE",
"216 771 CURVE SMOOTH",
"212 801 OFFCURVE",
"187 824 OFFCURVE",
"156 824 CURVE SMOOTH",
"123 824 OFFCURVE",
"96 797 OFFCURVE",
"96 764 CURVE SMOOTH",
"96 746 OFFCURVE",
"104 695 OFFCURVE",
"104 639 CURVE SMOOTH",
"104 507 OFFCURVE",
"62 345 OFFCURVE",
"62 144 CURVE SMOOTH",
"62 120 OFFCURVE",
"63 96 OFFCURVE",
"63 71 CURVE SMOOTH",
"64 34 OFFCURVE",
"83 13 OFFCURVE",
"119 7 CURVE SMOOTH",
"127 6 LINE SMOOTH",
"163 -1 OFFCURVE",
"187 13 OFFCURVE",
"202 48 CURVE SMOOTH",
"299 269 OFFCURVE",
"410 412 OFFCURVE",
"472 412 CURVE SMOOTH",
"472 412 OFFCURVE",
"488 345 OFFCURVE",
"497 256 CURVE SMOOTH",
"506 162 OFFCURVE",
"518 42 OFFCURVE",
"574 -28 CURVE SMOOTH",
"585 -42 OFFCURVE",
"602 -51 OFFCURVE",
"621 -51 CURVE SMOOTH"
);
}
);
width = 716;
},
{
associatedMasterId = "DC44E50C-9AA1-421C-802C-D4D023281425";
background = {
paths = (
{
closed = 0;
nodes = (
"130 874 LINE",
"163 616 OFFCURVE",
"81 457 OFFCURVE",
"99 19 CURVE",
"217 309 OFFCURVE",
"348 472 OFFCURVE",
"446 472 CURVE SMOOTH",
"563 472 OFFCURVE",
"498 131 OFFCURVE",
"595 9 CURVE SMOOTH"
);
}
);
};
backgroundImage = {
crop = "{{0, 0}, {930, 210}}";
imagePath = "Images/h.001.glif-Regular.tif";
locked = "1";
transform = "{8.58244, 0, 0, 8.58244, -103, -603}";
};
layerId = "CFF9C875-3851-4914-A10B-DF35202C147B";
name = "Jun 30 20, 21:20";
paths = (
{
closed = 1;
nodes = (
"628.137 -51 OFFCURVE",
"655 -24.137 OFFCURVE",
"655 9 CURVE SMOOTH",
"655 23.227 OFFCURVE",
"650.048 36.298 OFFCURVE",
"641.774 46.582 CURVE SMOOTH",
"616.855 78.116 OFFCURVE",
"603.909 132.38 OFFCURVE",
"590.212 267.69 CURVE SMOOTH",
"573.506 432.715 OFFCURVE",
"550.019 532 OFFCURVE",
"446 532 CURVE SMOOTH",
"352.432 532 OFFCURVE",
"253.938 442.929 OFFCURVE",
"159.965 282.748 CURVE",
"165 371 OFFCURVE",
"173 445 OFFCURVE",
"181 515 CURVE SMOOTH",
"190 595 OFFCURVE",
"198 670 OFFCURVE",
"197.916 748.635 CURVE SMOOTH",
"197.916 793.576 OFFCURVE",
"195.198 836.898 OFFCURVE",
"189.623 880.76 CURVE SMOOTH",
"186.265 910.714 OFFCURVE",
"160.852 934 OFFCURVE",
"130 934 CURVE SMOOTH",
"96.863 934 OFFCURVE",
"70 907.137 OFFCURVE",
"70 874 CURVE SMOOTH",
"70 871.115 OFFCURVE",
"70.204 868.278 OFFCURVE",
"70.598 865.502 CURVE SMOOTH",
"75.515 826.759 OFFCURVE",
"77.916 788.435 OFFCURVE",
"77.916 748.635 CURVE SMOOTH",
"77.916 676.842 OFFCURVE",
"70.298 608.545 OFFCURVE",
"61.329 528.132 CURVE SMOOTH",
"49.846 425.184 OFFCURVE",
"36.385 304.495 OFFCURVE",
"36.385 143.515 CURVE SMOOTH",
"36.385 119.643 OFFCURVE",
"36.676 95.506 OFFCURVE",
"37.27 70.928 CURVE SMOOTH",
"38.151 34.491 OFFCURVE",
"56.737 13.451 OFFCURVE",
"92.601 7.196 CURVE SMOOTH",
"101.486 5.646 LINE SMOOTH",
"137.13 -0.57 OFFCURVE",
"161.24 13.135 OFFCURVE",
"176.28 47.762 CURVE SMOOTH",
"273.365 269.127 OFFCURVE",
"383.695 412 OFFCURVE",
"446 412 CURVE SMOOTH",
"446.33 412 OFFCURVE",
"461.76 345.126 OFFCURVE",
"470.822 255.604 CURVE SMOOTH",
"480.336 161.623 OFFCURVE",
"492.43 42.149 OFFCURVE",
"547.597 -27.787 CURVE SMOOTH",
"558.574 -41.912 OFFCURVE",
"575.726 -51 OFFCURVE",
"595 -51 CURVE SMOOTH"
);
}
);
width = 690;
}
);
unicode = 0068;
},
{
glyphname = i;
lastChange = "2020-07-01 02:39:37 +0000";
layers = (
{
background = {
paths = (
{
closed = 0;
nodes = (
"137 466 LINE",
"139 328 OFFCURVE",
"143 213 OFFCURVE",
"142 53 CURVE"
);
},
{
closed = 0;
nodes = (
"123 766 LINE",
"130 757 OFFCURVE",
"136 730 OFFCURVE",
"156 712 CURVE SMOOTH"
);
}
);
};
backgroundImage = {
crop = "{{0, 0}, {930, 210}}";
imagePath = "Images/h.001.glif-Regular.tif";
transform = "{8.582, 0, 0, 8.582, -6852, -607}";
};
layerId = "DC44E50C-9AA1-421C-802C-D4D023281425";
paths = (
{
closed = 1;
nodes = (
"182 -7 OFFCURVE",
"202 16 OFFCURVE",
"202 53 CURVE SMOOTH",
"202 126 OFFCURVE",
"209 360 OFFCURVE",
"208 429 CURVE SMOOTH",
"207 500 OFFCURVE",
"181 526 OFFCURVE",
"137 526 CURVE SMOOTH",
"104 526 OFFCURVE",
"77 499 OFFCURVE",
"77 460 CURVE SMOOTH",
"77 326 OFFCURVE",
"82 263 OFFCURVE",
"82 50 CURVE SMOOTH",
"82 20 OFFCURVE",
"109 -7 OFFCURVE",
"142 -7 CURVE SMOOTH"
);
},
{
closed = 1;
nodes = (
"201 655 OFFCURVE",
"216 675 OFFCURVE",
"216 693 CURVE SMOOTH",
"216 753 OFFCURVE",
"181 826 OFFCURVE",
"123 826 CURVE SMOOTH",
"90 826 OFFCURVE",
"63 799 OFFCURVE",
"63 763 CURVE SMOOTH",
"63 708 OFFCURVE",
"108 655 OFFCURVE",
"161 655 CURVE SMOOTH"
);
}
);
width = 294;
}
);
unicode = 0069;
},
{
glyphname = j;
lastChange = "2020-07-03 02:57:22 +0000";
layers = (
{
background = {
paths = (
{
closed = 0;
nodes = (
"124 380 LINE",
"225 189 OFFCURVE",
"265 46 OFFCURVE",
"265 -106 CURVE SMOOTH",
"265 -254 OFFCURVE",
"187 -332 OFFCURVE",
"47 -332 CURVE SMOOTH",
"-17 -332 OFFCURVE",
"-54 -320 OFFCURVE",
"-97 -297 CURVE SMOOTH"
);
},
{
closed = 0;
nodes = (
"126 825 LINE",
"131 801 OFFCURVE",
"140 770 OFFCURVE",
"140 752 CURVE"
);
}
);
};
backgroundImage = {
crop = "{{0, 0}, {2342, 468}}";
imagePath = "Images/b.glif-Regular.tif";
locked = "1";
transform = "{3.442, 0, 0, 3.442, -1116, -626}";
};
layerId = "DC44E50C-9AA1-421C-802C-D4D023281425";
paths = (
{
closed = 1;
nodes = (
"207.234 -247 OFFCURVE",
"278 -152.119 OFFCURVE",
"278 9 CURVE",
"278 135.467 OFFCURVE",
"262 262 OFFCURVE",
"209 407 CURVE",
"201.793 427.591 OFFCURVE",
"177 440 OFFCURVE",
"148 440 CURVE",
"121 440 OFFCURVE",
"88 413.995 OFFCURVE",
"89 381 CURVE",
"89 370 OFFCURVE",
"89 361 OFFCURVE",
"92 352 CURVE",
"139 223 OFFCURVE",
"158 117.484 OFFCURVE",
"158 9 CURVE",
"158 -84.398 OFFCURVE",
"135.532 -127 OFFCURVE",
"87 -127 CURVE",
"55.896 -127 OFFCURVE",
"39.528 -123.402 OFFCURVE",
"14 -110 CURVE",
"6 -105 OFFCURVE",
"-4 -102 OFFCURVE",
"-15 -102 CURVE",
"-48 -102 OFFCURVE",
"-75 -129 OFFCURVE",
"-75 -162 CURVE",
"-75 -185 OFFCURVE",
"-62 -206 OFFCURVE",
"-42 -216 CURVE",
"-0.395 -237.937 OFFCURVE",
"37.211 -247 OFFCURVE",
"87 -247 CURVE"
);
},
{
closed = 1;
nodes = (
"193 612 OFFCURVE",
"220 639 OFFCURVE",
"220 672 CURVE SMOOTH",
"220 686 OFFCURVE",
"216 711 OFFCURVE",
"209 737 CURVE",
"208 744 OFFCURVE",
"206 750 OFFCURVE",
"205 756 CURVE SMOOTH",
"200 784 OFFCURVE",
"175 805 OFFCURVE",
"146 805 CURVE SMOOTH",
"113 805 OFFCURVE",
"86 778 OFFCURVE",
"86 745 CURVE SMOOTH",
"86 740 OFFCURVE",
"87 736 OFFCURVE",
"88 731 CURVE SMOOTH",
"89 724 OFFCURVE",
"91 717 OFFCURVE",
"93 710 CURVE SMOOTH",
"98 685 OFFCURVE",
"100 676 OFFCURVE",
"100 672 CURVE SMOOTH",
"100 639 OFFCURVE",
"127 612 OFFCURVE",
"160 612 CURVE SMOOTH"
);
}
);
width = 420;
},
{
associatedMasterId = "DC44E50C-9AA1-421C-802C-D4D023281425";
background = {
paths = (
{
closed = 0;
nodes = (
"124 380 LINE",
"225 189 OFFCURVE",
"265 46 OFFCURVE",
"265 -106 CURVE SMOOTH",
"265 -254 OFFCURVE",
"187 -332 OFFCURVE",
"47 -332 CURVE SMOOTH",
"-17 -332 OFFCURVE",
"-54 -320 OFFCURVE",
"-97 -297 CURVE SMOOTH"
);
},
{
closed = 0;
nodes = (
"126 825 LINE",
"131 801 OFFCURVE",
"140 770 OFFCURVE",
"140 752 CURVE"
);
}
);
};
backgroundImage = {
crop = "{{0, 0}, {2342, 468}}";
imagePath = "Images/b.glif-Regular.tif";
locked = "1";
transform = "{3.442, 0, 0, 3.442, -1116, -626}";
};
layerId = "9FFC9A2F-0C2F-4A8D-B055-287653E163D4";
name = "Jul 2 20, 22:57";
paths = (
{
closed = 1;
nodes = (
"221.933 -392 OFFCURVE",
"325 -285.718 OFFCURVE",
"325 -106 CURVE SMOOTH",
"325 57.129 OFFCURVE",
"280.286 212.531 OFFCURVE",
"177.631 406.931 CURVE SMOOTH",
"167.763 426.544 OFFCURVE",
"147.453 440 OFFCURVE",
"124 440 CURVE SMOOTH",
"90.863 440 OFFCURVE",
"64 413.137 OFFCURVE",
"64 380 CURVE SMOOTH",
"64 369.477 OFFCURVE",
"66.709 359.587 OFFCURVE",
"71.468 350.989 CURVE SMOOTH",
"166.75 170.593 OFFCURVE",
"205 39.371 OFFCURVE",
"205 -106 CURVE SMOOTH",
"205 -219.649 OFFCURVE",
"154.778 -272 OFFCURVE",
"47 -272 CURVE SMOOTH",
"-2.188 -272 OFFCURVE",
"-27.646 -265.935 OFFCURVE",
"-67.752 -244.599 CURVE SMOOTH",
"-76.406 -239.759 OFFCURVE",
"-86.381 -237 OFFCURVE",
"-97 -237 CURVE SMOOTH",
"-130.137 -237 OFFCURVE",
"-157 -263.863 OFFCURVE",
"-157 -297 CURVE SMOOTH",
"-157 -320.376 OFFCURVE",
"-143.631 -340.63 OFFCURVE",
"-124.122 -350.534 CURVE SMOOTH",
"-68.68 -379.986 OFFCURVE",
"-18.979 -392 OFFCURVE",
"47 -392 CURVE SMOOTH"
);
},
{
closed = 1;
nodes = (
"183 612 OFFCURVE",
"210 639 OFFCURVE",
"210 672 CURVE SMOOTH",
"210 686 OFFCURVE",
"206 711 OFFCURVE",
"199 737 CURVE SMOOTH",
"198 744 OFFCURVE",
"196 750 OFFCURVE",
"195 756 CURVE SMOOTH",
"190 784 OFFCURVE",
"165 805 OFFCURVE",
"136 805 CURVE SMOOTH",
"103 805 OFFCURVE",
"76 778 OFFCURVE",
"76 745 CURVE SMOOTH",
"76 740 OFFCURVE",
"77 736 OFFCURVE",
"78 731 CURVE SMOOTH",
"79 724 OFFCURVE",
"81 717 OFFCURVE",
"83 710 CURVE SMOOTH",
"88 685 OFFCURVE",
"90 676 OFFCURVE",
"90 672 CURVE SMOOTH",
"90 639 OFFCURVE",
"117 612 OFFCURVE",
"150 612 CURVE SMOOTH"
);
}
);
width = 420;
}
);
unicode = 006A;
},
{
glyphname = k;
lastChange = "2020-07-02 22:57:56 +0000";
layers = (
{
background = {
paths = (
{
closed = 0;
nodes = (
"107 644 LINE",
"160 443 OFFCURVE",
"125 186 OFFCURVE",
"153 22 CURVE SMOOTH"
);
},
{
closed = 0;
nodes = (
"495 465 LINE",
"388 443 OFFCURVE",
"227 308 OFFCURVE",
"227 229 CURVE SMOOTH",
"227 169 OFFCURVE",
"352 92 OFFCURVE",
"500 53 CURVE SMOOTH"
);
}
);
};
backgroundImage = {
crop = "{{0, 0}, {2342, 468}}";
imagePath = "Images/b.glif-Regular.tif";
transform = "{3.442, 0, 0, 3.442, -1521, -626}";
};
layerId = "DC44E50C-9AA1-421C-802C-D4D023281425";
paths = (
{
closed = 1;
nodes = (
"186.137 -38 OFFCURVE",
"213 -11.137 OFFCURVE",
"213 22 CURVE SMOOTH",
"213 25.261 OFFCURVE",
"212.74 28.461 OFFCURVE",
"212.239 31.581 CURVE SMOOTH",
"201.238 108.173 OFFCURVE",
"200.592 203.82 OFFCURVE",
"199.877 309.872 CURVE SMOOTH",
"198.883 457.238 OFFCURVE",
"197.763 623.178 OFFCURVE",
"165.818 766.907 CURVE SMOOTH",
"160.295 794.34 OFFCURVE",
"136.06 815 OFFCURVE",
"107 815 CURVE SMOOTH",
"73.863 815 OFFCURVE",
"47 788.137 OFFCURVE",
"47 755 CURVE SMOOTH",
"47 750.075 OFFCURVE",
"47.593 745.288 OFFCURVE",
"48.713 740.708 CURVE SMOOTH",
"77.852 609.505 OFFCURVE",
"78.886 456.385 OFFCURVE",
"79.88 309.063 CURVE SMOOTH",
"80.595 202.973 OFFCURVE",
"81.297 99.107 OFFCURVE",
"93.481 14.367 CURVE SMOOTH",
"97.231 -15.166 OFFCURVE",
"122.449 -38 OFFCURVE",
"153 -38 CURVE SMOOTH"
);
},
{
closed = 1;
nodes = (
"533.137 -7 OFFCURVE",
"560 19.863 OFFCURVE",
"560 53 CURVE SMOOTH",
"560 81.277 OFFCURVE",
"540.438 104.986 OFFCURVE",
"514.109 111.331 CURVE SMOOTH",
"403.5 140.747 OFFCURVE",
"287 209.268 OFFCURVE",
"287 229 CURVE SMOOTH",
"287 272.731 OFFCURVE",
"425.526 388.825 OFFCURVE",
"506.208 406.045 CURVE SMOOTH",
"533.989 411.295 OFFCURVE",
"555 435.694 OFFCURVE",
"555 465 CURVE SMOOTH",
"555 498.137 OFFCURVE",
"528.137 525 OFFCURVE",
"495 525 CURVE SMOOTH",
"490.368 525 OFFCURVE",
"485.859 524.475 OFFCURVE",
"481.529 523.481 CURVE SMOOTH",
"339.909 493.566 OFFCURVE",
"167 335.45 OFFCURVE",
"167 229 CURVE SMOOTH",
"167 129.576 OFFCURVE",
"313.952 40.252 OFFCURVE",
"483.338 -4.656 CURVE SMOOTH",
"488.628 -6.182 OFFCURVE",
"494.219 -7 OFFCURVE",
"500 -7 CURVE SMOOTH"
);
}
);
width = 600;
}
);
unicode = 006B;
},
{
glyphname = l;
lastChange = "2020-07-02 22:58:15 +0000";
layers = (
{
background = {
paths = (
{
closed = 0;
nodes = (
"126 737 LINE",
"114 623 OFFCURVE",
"104 534 OFFCURVE",
"104 417 CURVE SMOOTH",
"104 182 OFFCURVE",
"145 49 OFFCURVE",
"198 49 CURVE SMOOTH",
"238 49 OFFCURVE",
"273 65 OFFCURVE",
"307 98 CURVE"
);
}
);
};
backgroundImage = {
crop = "{{0, 0}, {2342, 468}}";
imagePath = "Images/b.glif-Regular.tif";
locked = "1";
transform = "{3.442, 0, 0, 3.442, -2482, -626}";
};
layerId = "DC44E50C-9AA1-421C-802C-D4D023281425";
paths = (
{
closed = 1;
nodes = (
"253.177 -11 OFFCURVE",
"303.889 11.367 OFFCURVE",
"348.789 54.945 CURVE SMOOTH",
"360.021 65.849 OFFCURVE",
"367 81.109 OFFCURVE",
"367 98 CURVE SMOOTH",
"367 131.137 OFFCURVE",
"340.137 158 OFFCURVE",
"307 158 CURVE SMOOTH",
"290.754 158 OFFCURVE",
"276.015 151.542 OFFCURVE",
"265.211 141.055 CURVE SMOOTH",
"241.242 117.79 OFFCURVE",
"222.005 109 OFFCURVE",
"198 109 CURVE SMOOTH",
"195.265 109 OFFCURVE",
"164 288.397 OFFCURVE",
"164 417 CURVE SMOOTH",
"164 530.362 OFFCURVE",
"173.601 616.089 OFFCURVE",
"185.582 729.88 CURVE SMOOTH",
"185.858 732.215 OFFCURVE",
"186 734.591 OFFCURVE",
"186 737 CURVE SMOOTH",
"186 770.137 OFFCURVE",
"159.137 797 OFFCURVE",
"126 797 CURVE SMOOTH",
"94.748 797 OFFCURVE",
"69.078 773.107 OFFCURVE",
"66.257 742.592 CURVE SMOOTH",
"54.31 629.118 OFFCURVE",
"44 537.117 OFFCURVE",
"44 417 CURVE SMOOTH",
"44 183.303 OFFCURVE",
"81.184 -11 OFFCURVE",
"198 -11 CURVE SMOOTH"
);
}
);
width = 410;
}
);
unicode = 006C;
},
{
glyphname = m;
lastChange = "2020-07-02 22:58:22 +0000";
layers = (
{
background = {
paths = (
{
closed = 0;
nodes = (
"125 336 LINE",
"139 246 OFFCURVE",
"107 117 OFFCURVE",
"135 37 CURVE",
"147 185 OFFCURVE",
"224 351 OFFCURVE",
"271 351 CURVE SMOOTH",
"350 351 OFFCURVE",
"376 176 OFFCURVE",
"452 95 CURVE",
"480 187 OFFCURVE",
"597 355 OFFCURVE",
"654 355 CURVE SMOOTH",
"728 355 OFFCURVE",
"716 169 OFFCURVE",
"808 69 CURVE SMOOTH"
);
}
);
};
backgroundImage = {
crop = "{{0, 0}, {2342, 468}}";
imagePath = "Images/b.glif-Regular.tif";
locked = "1";
transform = "{3.442, 0, 0, 3.442, -2913, -626}";
};
layerId = "DC44E50C-9AA1-421C-802C-D4D023281425";
paths = (
{
closed = 1;
nodes = (
"841.137 9 OFFCURVE",
"868 35.863 OFFCURVE",
"868 69 CURVE SMOOTH",
"868 84.691 OFFCURVE",
"861.977 98.975 OFFCURVE",
"852.116 109.667 CURVE SMOOTH",
"817.524 147.295 OFFCURVE",
"801.281 201.485 OFFCURVE",
"784.087 258.852 CURVE SMOOTH",
"755.164 355.348 OFFCURVE",
"727.88 415 OFFCURVE",
"654 415 CURVE SMOOTH",
"589.386 415 OFFCURVE",
"501.578 322.024 OFFCURVE",
"443.723 221.885 CURVE",
"439.756 230.134 OFFCURVE",
"435.51 239.153 OFFCURVE",
"430.921 249.053 CURVE SMOOTH",
"383.216 351.971 OFFCURVE",
"345.411 411 OFFCURVE",
"271 411 CURVE SMOOTH",
"239.111 411 OFFCURVE",
"208.773 389.654 OFFCURVE",
"181.865 355.191 CURVE",
"173.861 378.916 OFFCURVE",
"151.426 396 OFFCURVE",
"125 396 CURVE SMOOTH",
"91.863 396 OFFCURVE",
"65 369.137 OFFCURVE",
"65 336 CURVE SMOOTH",
"65 332.549 OFFCURVE",
"65.292 329.167 OFFCURVE",
"65.851 325.875 CURVE SMOOTH",
"67.78 313.065 OFFCURVE",
"68.729 297.885 OFFCURVE",
"68.729 279.004 CURVE SMOOTH",
"68.729 256.539 OFFCURVE",
"67.412 232.856 OFFCURVE",
"66 207.461 CURVE SMOOTH",
"64.584 181.971 OFFCURVE",
"63.073 154.77 OFFCURVE",
"63.073 128.698 CURVE SMOOTH",
"63.073 108.3 OFFCURVE",
"64.136 89.38 OFFCURVE",
"66.254 72.077 CURVE SMOOTH",
"70.773 35.201 OFFCURVE",
"97.581 19.65 OFFCURVE",
"134.927 24.452 CURVE SMOOTH",
"143.014 25.492 LINE SMOOTH",
"178.098 30.003 OFFCURVE",
"195.852 48.941 OFFCURVE",
"203.831 83.548 CURVE SMOOTH",
"223.355 167.879 OFFCURVE",
"266.766 291 OFFCURVE",
"271 291 CURVE SMOOTH",
"273.144 291 OFFCURVE",
"292.705 261.893 OFFCURVE",
"322.049 198.588 CURVE SMOOTH",
"337.356 165.564 OFFCURVE",
"355.382 126.674 OFFCURVE",
"378.163 92.453 CURVE SMOOTH",
"396.857 64.183 OFFCURVE",
"423.028 57.393 OFFCURVE",
"455.872 65.05 CURVE SMOOTH",
"464.522 67.067 LINE SMOOTH",
"495.949 74.394 OFFCURVE",
"512.799 90.679 OFFCURVE",
"527.412 119.72 CURVE SMOOTH",
"559.597 182.821 OFFCURVE",
"619.417 266.915 OFFCURVE",
"644.659 289.319 CURVE",
"649.211 280.492 OFFCURVE",
"657.879 261.966 OFFCURVE",
"669.139 224.399 CURVE SMOOTH",
"686.312 167.103 OFFCURVE",
"710.442 86.6 OFFCURVE",
"763.584 28.66 CURVE SMOOTH",
"774.56 16.583 OFFCURVE",
"790.394 9 OFFCURVE",
"808 9 CURVE SMOOTH"
);
}
);
width = 910;
}
);
widthMetricsKey = "91p0";
unicode = 006D;
},
{
glyphname = n;
lastChange = "2020-07-01 02:37:32 +0000";
layers = (
{
background = {
paths = (
{
closed = 0;
nodes = (
"113 440 LINE",
"124 365 OFFCURVE",
"82 202 OFFCURVE",
"124 49 CURVE",
"200 294 OFFCURVE",
"320 458 OFFCURVE",
"394 458 CURVE SMOOTH",
"440 458 OFFCURVE",
"463 438 OFFCURVE",
"463 366 CURVE SMOOTH",
"463 208 OFFCURVE",
"489 119 OFFCURVE",
"564 55 CURVE SMOOTH"
);
}
);
};
backgroundImage = {
crop = "{{0, 0}, {498, 454}}";
imagePath = "Images/n.glif-Regular.tif";
locked = "1";
transform = "{1.49043, 0, 0, 1.49043, -39, -91}";
};
layerId = "DC44E50C-9AA1-421C-802C-D4D023281425";
paths = (
{
closed = 1;
nodes = (
"603 -5 OFFCURVE",
"624 14 OFFCURVE",
"624 51 CURVE SMOOTH",
"624 73 OFFCURVE",
"616 90 OFFCURVE",
"603 101 CURVE SMOOTH",
"545 150 OFFCURVE",
"523 220 OFFCURVE",
"523 366 CURVE SMOOTH",
"523 464 OFFCURVE",
"480 518 OFFCURVE",
"394 518 CURVE SMOOTH",
"313 518 OFFCURVE",
"213 427 OFFCURVE",
"150 260 CURVE",
"169 252 LINE",
"173 347 OFFCURVE",
"183 405 OFFCURVE",
"179 448 CURVE SMOOTH",
"176 486 OFFCURVE",
"144 500 OFFCURVE",
"117 500 CURVE SMOOTH",
"80 500 OFFCURVE",
"62 476 OFFCURVE",
"59 443 CURVE SMOOTH",
"51 355 OFFCURVE",
"45 278 OFFCURVE",
"45 151 CURVE SMOOTH",
"45 58 OFFCURVE",
"73 -7 OFFCURVE",
"123 -9 CURVE SMOOTH",
"158 -9 OFFCURVE",
"184 14 OFFCURVE",
"200 74 CURVE SMOOTH",
"247 246 OFFCURVE",
"356 398 OFFCURVE",
"394 398 CURVE SMOOTH",
"402 398 OFFCURVE",
"403 398 OFFCURVE",
"403 366 CURVE SMOOTH",
"403 187 OFFCURVE",
"437 84 OFFCURVE",
"507 25 CURVE SMOOTH",
"535 1 OFFCURVE",
"549 -5 OFFCURVE",
"575 -5 CURVE SMOOTH"
);
}
);
width = 634;
}
);
unicode = 006E;
},
{
glyphname = o;
lastChange = "2020-07-01 02:35:54 +0000";
layers = (
{
background = {
paths = (
{
closed = 0;
nodes = (
"261 461 LINE",
"152 444 OFFCURVE",
"95 367 OFFCURVE",
"95 266 CURVE SMOOTH",
"95 161 OFFCURVE",
"172 68 OFFCURVE",
"315 68 CURVE SMOOTH",
"419 68 OFFCURVE",
"505 147 OFFCURVE",
"505 266 CURVE SMOOTH",
"505 380 OFFCURVE",
"423 444 OFFCURVE",
"326 444 CURVE SMOOTH",
"242 444 OFFCURVE",
"200 398 OFFCURVE",
"182 341 CURVE SMOOTH"
);
}
);
};
backgroundImage = {
crop = "{{0, 0}, {930, 210}}";
imagePath = "Images/h.001.glif-Regular.tif";
transform = "{8.582, 0, 0, 8.582, -6224, -607}";
};
layerId = "DC44E50C-9AA1-421C-802C-D4D023281425";
paths = (
{
closed = 1;
nodes = (
"457 -12 OFFCURVE",
"565 108 OFFCURVE",
"565 266 CURVE SMOOTH",
"565 405 OFFCURVE",
"465 504 OFFCURVE",
"326 504 CURVE SMOOTH",
"212 504 OFFCURVE",
"134 409 OFFCURVE",
"134 352 CURVE SMOOTH",
"134 304 OFFCURVE",
"160 270 OFFCURVE",
"191 270 CURVE SMOOTH",
"234 270 OFFCURVE",
"229 334 OFFCURVE",
"266 367 CURVE SMOOTH",
"281 378 OFFCURVE",
"300 384 OFFCURVE",
"326 384 CURVE SMOOTH",
"399 384 OFFCURVE",
"445 339 OFFCURVE",
"445 266 CURVE SMOOTH",
"445 174 OFFCURVE",
"391 108 OFFCURVE",
"315 108 CURVE SMOOTH",
"217 108 OFFCURVE",
"155 171 OFFCURVE",
"155 266 CURVE SMOOTH",
"155 322 OFFCURVE",
"177 363 OFFCURVE",
"218 385 CURVE SMOOTH",
"261 408 OFFCURVE",
"276 430 OFFCURVE",
"276 467 CURVE SMOOTH",
"276 499 OFFCURVE",
"252 511 OFFCURVE",
"225 511 CURVE SMOOTH",
"122 509 OFFCURVE",
"35 386 OFFCURVE",
"35 266 CURVE SMOOTH",
"35 104 OFFCURVE",
"152 -12 OFFCURVE",
"315 -12 CURVE SMOOTH"
);
}
);
width = 600;
}
);
unicode = 006F;
},
{
glyphname = p;
lastChange = "2020-07-02 22:58:48 +0000";
layers = (
{
background = {
paths = (
{
closed = 0;
nodes = (
"97 363 LINE",
"115 196 OFFCURVE",
"194 29 OFFCURVE",
"181 -209 CURVE SMOOTH"
);
},
{
closed = 0;
nodes = (
"134 414 LINE",
"283 440 OFFCURVE",
"501 354 OFFCURVE",
"501 236 CURVE SMOOTH",
"501 177 OFFCURVE",
"336 120 OFFCURVE",
"186 130 CURVE SMOOTH"
);
}
);
};
backgroundImage = {
crop = "{{0, 0}, {2342, 468}}";
imagePath = "Images/b.glif-Regular.tif";
locked = "1";
transform = "{3.442, 0, 0, 3.442, -3824, -626}";
};
layerId = "DC44E50C-9AA1-421C-802C-D4D023281425";
paths = (
{
closed = 1;
nodes = (
"213.156 -269 OFFCURVE",
"239.404 -243.703 OFFCURVE",
"240.93 -211.925 CURVE SMOOTH",
"241.956 -193.026 OFFCURVE",
"242.437 -174.626 OFFCURVE",
"242.437 -156.361 CURVE SMOOTH",
"242.437 -20.48 OFFCURVE",
"215.043 94.197 OFFCURVE",
"191.238 193.846 CURVE SMOOTH",
"176.197 256.81 OFFCURVE",
"162.815 312.833 OFFCURVE",
"156.728 368.748 CURVE SMOOTH",
"153.835 399.189 OFFCURVE",
"128.198 423 OFFCURVE",
"97 423 CURVE SMOOTH",
"63.863 423 OFFCURVE",
"37 396.137 OFFCURVE",
"37 363 CURVE SMOOTH",
"37 360.507 OFFCURVE",
"37.152 358.05 OFFCURVE",
"37.447 355.638 CURVE SMOOTH",
"44.364 292.215 OFFCURVE",
"59.494 228.876 OFFCURVE",
"74.522 165.965 CURVE SMOOTH",
"98.327 66.316 OFFCURVE",
"122.437 -34.614 OFFCURVE",
"122.437 -156.361 CURVE SMOOTH",
"122.437 -172.978 OFFCURVE",
"121.974 -189.418 OFFCURVE",
"121.108 -205.377 CURVE SMOOTH",
"121.036 -206.576 OFFCURVE",
"121 -207.784 OFFCURVE",
"121 -209 CURVE SMOOTH",
"121 -242.137 OFFCURVE",
"147.863 -269 OFFCURVE",
"181 -269 CURVE SMOOTH"
);
},
{
closed = 1;
nodes = (
"386.329 68.852 OFFCURVE",
"561 131.546 OFFCURVE",
"561 236 CURVE SMOOTH",
"561 367.784 OFFCURVE",
"385.149 478.66 OFFCURVE",
"190.769 478.66 CURVE SMOOTH",
"167.975 478.66 OFFCURVE",
"145.467 476.835 OFFCURVE",
"124.774 473.295 CURVE SMOOTH",
"96.017 468.857 OFFCURVE",
"74 444 OFFCURVE",
"74 414 CURVE SMOOTH",
"74 380.863 OFFCURVE",
"100.863 354 OFFCURVE",
"134 354 CURVE SMOOTH",
"137.862 354 OFFCURVE",
"141.639 354.365 OFFCURVE",
"145.299 355.062 CURVE SMOOTH",
"159.484 357.475 OFFCURVE",
"174.383 358.66 OFFCURVE",
"190.769 358.66 CURVE SMOOTH",
"312.545 358.66 OFFCURVE",
"441 291.207 OFFCURVE",
"441 236 CURVE SMOOTH",
"441 227.998 OFFCURVE",
"300.475 188.852 OFFCURVE",
"221.081 188.852 CURVE SMOOTH",
"210.364 188.852 OFFCURVE",
"200.153 189.201 OFFCURVE",
"190.493 189.834 CURVE SMOOTH",
"189.01 189.944 OFFCURVE",
"187.511 190 OFFCURVE",
"186 190 CURVE SMOOTH",
"152.863 190 OFFCURVE",
"126 163.137 OFFCURVE",
"126 130 CURVE SMOOTH",
"126 98.022 OFFCURVE",
"151.016 71.888 OFFCURVE",
"182.545 70.098 CURVE SMOOTH",
"195.493 69.247 OFFCURVE",
"208.367 68.852 OFFCURVE",
"221.081 68.852 CURVE SMOOTH"
);
}
);
width = 600;
}
);
unicode = 0070;
},
{
glyphname = q;
lastChange = "2020-07-03 02:58:19 +0000";
layers = (
{
background = {
paths = (
{
closed = 0;
nodes = (
"457 395 LINE",
"424 427 OFFCURVE",
"393 440 OFFCURVE",
"369 440 CURVE SMOOTH",
"264 440 OFFCURVE",
"115 283 OFFCURVE",
"115 162 CURVE SMOOTH",
"115 91 OFFCURVE",
"150 23 OFFCURVE",
"240 23 CURVE SMOOTH",
"378 23 OFFCURVE",
"537 166 OFFCURVE",
"536 334 CURVE",
"497 136 OFFCURVE",
"525 -11 OFFCURVE",
"517 -227 CURVE",
"571 -174 OFFCURVE",
"656 -119 OFFCURVE",
"723 -58 CURVE SMOOTH"
);
}
);
};
backgroundImage = {
crop = "{{0, 0}, {2342, 468}}";
imagePath = "Images/b.glif-Regular.tif";
locked = "1";
transform = "{3.442, 0, 0, 3.442, -4445, -626}";
};
layerId = "DC44E50C-9AA1-421C-802C-D4D023281425";
paths = (
{
closed = 1;
nodes = (
"505 319 OFFCURVE",
"532 346 OFFCURVE",
"532 379 CURVE SMOOTH",
"532 396 OFFCURVE",
"525 411 OFFCURVE",
"514 422 CURVE SMOOTH",
"467 468 OFFCURVE",
"418 500 OFFCURVE",
"369 500 CURVE SMOOTH",
"227.746 500 OFFCURVE",
"55 313.382 OFFCURVE",
"55 162 CURVE SMOOTH",
"55 43.573 OFFCURVE",
"128.694 -37 OFFCURVE",
"240 -37 CURVE SMOOTH",
"317.335 -37 OFFCURVE",
"393.294 -4.417 OFFCURVE",
"455.053 47.609 CURVE",
"455.41 25.598 OFFCURVE",
"455.965 3.522 OFFCURVE",
"456.524 -18.678 CURVE SMOOTH",
"457.519 -58.253 OFFCURVE",
"458.526 -98.316 OFFCURVE",
"458.526 -140.852 CURVE SMOOTH",
"458.526 -155.481 OFFCURVE",
"458.407 -169.421 OFFCURVE",
"458.174 -182.902 CURVE SMOOTH",
"457 -225 OFFCURVE",
"479 -252 OFFCURVE",
"518 -252 CURVE SMOOTH",
"551 -252 OFFCURVE",
"581 -234 OFFCURVE",
"596 -222 CURVE SMOOTH",
"608 -212 OFFCURVE",
"678 -160 OFFCURVE",
"703 -138 CURVE SMOOTH",
"715 -127 OFFCURVE",
"723 -111 OFFCURVE",
"723 -93 CURVE SMOOTH",
"723 -60 OFFCURVE",
"696 -33 OFFCURVE",
"663 -33 CURVE SMOOTH",
"647 -33 OFFCURVE",
"633 -39 OFFCURVE",
"622 -49 CURVE SMOOTH",
"610 -60 OFFCURVE",
"599 -69 OFFCURVE",
"584 -79 CURVE SMOOTH",
"578 -83 LINE",
"578 -55 OFFCURVE",
"577.154 -42.222 OFFCURVE",
"576.486 -15.661 CURVE SMOOTH",
"575.549 21.577 OFFCURVE",
"574.66 56.962 OFFCURVE",
"574.66 92.273 CURVE SMOOTH",
"574.66 146.655 OFFCURVE",
"576.936 193.6 OFFCURVE",
"581.876 238.076 CURVE",
"586.539 253.702 OFFCURVE",
"592 275 OFFCURVE",
"592 294 CURVE SMOOTH",
"592 334 OFFCURVE",
"570 358 OFFCURVE",
"537 358 CURVE SMOOTH",
"490 358 OFFCURVE",
"470 320 OFFCURVE",
"464 264 CURVE",
"431 166 OFFCURVE",
"334 83 OFFCURVE",
"240 83 CURVE SMOOTH",
"198 83 OFFCURVE",
"175 108 OFFCURVE",
"175 162 CURVE SMOOTH",
"175 247 OFFCURVE",
"296 380 OFFCURVE",
"369 380 CURVE SMOOTH",
"381 380 OFFCURVE",
"411 355 OFFCURVE",
"430 336 CURVE SMOOTH",
"441 325 OFFCURVE",
"456 319 OFFCURVE",
"472 319 CURVE SMOOTH"
);
}
);
width = 620;
}
);
unicode = 0071;
},
{
glyphname = r;
lastChange = "2020-07-01 02:36:27 +0000";
layers = (
{
background = {
paths = (
{
closed = 0;
nodes = (
"90 468 LINE",
"147 386 OFFCURVE",
"155 94 OFFCURVE",
"152 8 CURVE",
"177 269 OFFCURVE",
"201 295 OFFCURVE",
"425 465 CURVE SMOOTH"
);
}
);
};
backgroundImage = {
crop = "{{0, 0}, {930, 210}}";
imagePath = "Images/h.001.glif-Regular.tif";
locked = "1";
transform = "{8.582, 0, 0, 8.582, -1431, -603}";
};
layerId = "DC44E50C-9AA1-421C-802C-D4D023281425";
paths = (
{
closed = 1;
nodes = (
"204 -16 OFFCURVE",
"213 23 OFFCURVE",
"218 62 CURVE SMOOTH",
"238 241 OFFCURVE",
"263 267 OFFCURVE",
"461 417 CURVE SMOOTH",
"475 428 OFFCURVE",
"485 445 OFFCURVE",
"485 465 CURVE SMOOTH",
"485 498 OFFCURVE",
"458 525 OFFCURVE",
"425 525 CURVE SMOOTH",
"411 525 OFFCURVE",
"398 520 OFFCURVE",
"373 501 CURVE SMOOTH",
"284 433 OFFCURVE",
"219 380 OFFCURVE",
"178 306 CURVE",
"197 301 LINE",
"185 393 OFFCURVE",
"166 464 OFFCURVE",
"140 501 CURVE SMOOTH",
"129 517 OFFCURVE",
"111 528 OFFCURVE",
"90 528 CURVE SMOOTH",
"57 528 OFFCURVE",
"30 501 OFFCURVE",
"30 468 CURVE SMOOTH",
"30 455 OFFCURVE",
"34 443 OFFCURVE",
"41 433 CURVE SMOOTH",
"80 376 OFFCURVE",
"94 145 OFFCURVE",
"93 71 CURVE SMOOTH",
"92 -2 OFFCURVE",
"126 -16 OFFCURVE",
"166 -15 CURVE SMOOTH"
);
}
);
width = 500;
}
);
unicode = 0072;
},
{
glyphname = s;
lastChange = "2020-07-01 02:37:55 +0000";
layers = (
{
background = {
paths = (
{
closed = 0;
nodes = (
"324 478 LINE",
"232 480 OFFCURVE",
"121 445 OFFCURVE",
"121 371 CURVE SMOOTH",
"121 259 OFFCURVE",
"429 294 OFFCURVE",
"429 162 CURVE SMOOTH",
"429 81 OFFCURVE",
"213 17 OFFCURVE",
"80 37 CURVE SMOOTH"
);
}
);
};
backgroundImage = {
crop = "{{0, 0}, {930, 210}}";
imagePath = "Images/h.001.glif-Regular.tif";
transform = "{8.582, 0, 0, 8.582, -3139, -603}";
};
layerId = "DC44E50C-9AA1-421C-802C-D4D023281425";
paths = (
{
closed = 1;
nodes = (
"282 -27 OFFCURVE",
"489 31 OFFCURVE",
"489 162 CURVE SMOOTH",
"489 257 OFFCURVE",
"420 288 OFFCURVE",
"286 325 CURVE SMOOTH",
"218 344 OFFCURVE",
"181 363 OFFCURVE",
"181 371 CURVE SMOOTH",
"181 387 OFFCURVE",
"235 427 OFFCURVE",
"324 427 CURVE SMOOTH",
"357 427 OFFCURVE",
"384 445 OFFCURVE",
"384 478 CURVE SMOOTH",
"384 511 OFFCURVE",
"358 537 OFFCURVE",
"325 538 CURVE SMOOTH",
"184 541 OFFCURVE",
"61 478 OFFCURVE",
"61 371 CURVE SMOOTH",
"61 286 OFFCURVE",
"131 252 OFFCURVE",
"249 219 CURVE SMOOTH",
"345 192 OFFCURVE",
"369 177 OFFCURVE",
"369 162 CURVE SMOOTH",
"369 131 OFFCURVE",
"222 93 OFFCURVE",
"142 93 CURVE SMOOTH",
"116 93 OFFCURVE",
"97 97 OFFCURVE",
"80 97 CURVE SMOOTH",
"40 97 OFFCURVE",
"20 70 OFFCURVE",
"20 37 CURVE SMOOTH",
"20 -4 OFFCURVE",
"54 -27 OFFCURVE",
"133 -27 CURVE SMOOTH"
);
}
);
width = 519;
}
);
unicode = 0073;
},
{
glyphname = t;
lastChange = "2020-07-01 02:38:20 +0000";
layers = (
{
background = {
paths = (
{
closed = 0;
nodes = (
"100 745 LINE",
"117 654 OFFCURVE",
"101 521 OFFCURVE",
"101 391 CURVE SMOOTH",
"101 179 OFFCURVE",
"254 -16 OFFCURVE",
"380 63 CURVE SMOOTH"
);
},
{
closed = 0;
nodes = (
"423 443 LINE",
"320 436 OFFCURVE",
"217 412 OFFCURVE",
"135 381 CURVE SMOOTH"
);
}
);
};
backgroundImage = {
crop = "{{0, 0}, {930, 210}}";
imagePath = "Images/h.001.glif-Regular.tif";
locked = "1";
transform = "{8.582, 0, 0, 8.582, -3655, -603}";
};
layerId = "DC44E50C-9AA1-421C-802C-D4D023281425";
paths = (
{
closed = 1;
nodes = (
"162 496 OFFCURVE",
"168 600 OFFCURVE",
"168 637 CURVE SMOOTH",
"168 685 OFFCURVE",
"165 723 OFFCURVE",
"159 755 CURVE SMOOTH",
"154 783 OFFCURVE",
"130 805 OFFCURVE",
"100 805 CURVE SMOOTH",
"67 805 OFFCURVE",
"40 778 OFFCURVE",
"40 745 CURVE SMOOTH",
"40 715 OFFCURVE",
"48 678 OFFCURVE",
"48 637 CURVE SMOOTH",
"48 602 OFFCURVE",
"41 436 OFFCURVE",
"41 391 CURVE SMOOTH",
"41 181 OFFCURVE",
"172 -15 OFFCURVE",
"320 -15 CURVE SMOOTH",
"371 -15 OFFCURVE",
"440 10 OFFCURVE",
"440 63 CURVE SMOOTH",
"440 96 OFFCURVE",
"413 123 OFFCURVE",
"380 123 CURVE SMOOTH",
"351 123 OFFCURVE",
"345 105 OFFCURVE",
"320 105 CURVE SMOOTH",
"239 105 OFFCURVE",
"162 271 OFFCURVE",
"162 396 CURVE SMOOTH"
);
},
{
closed = 1;
nodes = (
"229 353 OFFCURVE",
"304 377 OFFCURVE",
"397 383 CURVE SMOOTH",
"428 385 OFFCURVE",
"453 411 OFFCURVE",
"453 443 CURVE SMOOTH",
"453 476 OFFCURVE",
"426 503 OFFCURVE",
"393 503 CURVE SMOOTH",
"328 503 OFFCURVE",
"218 473 OFFCURVE",
"147 449 CURVE SMOOTH",
"90 425 OFFCURVE",
"82 401 OFFCURVE",
"82 368 CURVE SMOOTH",
"82 332 OFFCURVE",
"119 311 OFFCURVE",
"160 327 CURVE SMOOTH"
);
}
);
width = 488;
}
);
unicode = 0074;
},
{
glyphname = u;
lastChange = "2020-07-01 02:38:43 +0000";
layers = (
{
background = {
paths = (
{
closed = 0;
nodes = (
"126 477 LINE",
"109 433 OFFCURVE",
"98 390 OFFCURVE",
"98 327 CURVE SMOOTH",
"98 205 OFFCURVE",
"205 66 OFFCURVE",
"293 66 CURVE SMOOTH",
"429 66 OFFCURVE",
"482 256 OFFCURVE",
"464 479 CURVE SMOOTH"
);
}
);
};
backgroundImage = {
crop = "{{0, 0}, {930, 210}}";
imagePath = "Images/h.001.glif-Regular.tif";
locked = "1";
transform = "{8.582, 0, 0, 8.582, -4975, -603}";
};
layerId = "DC44E50C-9AA1-421C-802C-D4D023281425";
paths = (
{
closed = 1;
nodes = (
"441 6 OFFCURVE",
"527 157 OFFCURVE",
"527 397 CURVE SMOOTH",
"527 471 OFFCURVE",
"529 539 OFFCURVE",
"464 539 CURVE SMOOTH",
"431 539 OFFCURVE",
"404 512 OFFCURVE",
"404 479 CURVE SMOOTH",
"404 452 OFFCURVE",
"407 425 OFFCURVE",
"407 397 CURVE SMOOTH",
"407 227 OFFCURVE",
"360 126 OFFCURVE",
"293 126 CURVE SMOOTH",
"239 126 OFFCURVE",
"158 241 OFFCURVE",
"158 327 CURVE SMOOTH",
"158 410 OFFCURVE",
"186 456 OFFCURVE",
"186 477 CURVE SMOOTH",
"186 510 OFFCURVE",
"159 537 OFFCURVE",
"126 537 CURVE SMOOTH",
"100 537 OFFCURVE",
"78 520 OFFCURVE",
"70 497 CURVE SMOOTH",
"48 441 OFFCURVE",
"38 388 OFFCURVE",
"38 327 CURVE SMOOTH",
"38 174 OFFCURVE",
"169 6 OFFCURVE",
"293 6 CURVE SMOOTH"
);
}
);
width = 572;
}
);
unicode = 0075;
},
{
glyphname = v;
lastChange = "2020-07-01 02:36:37 +0000";
layers = (
{
background = {
paths = (
{
closed = 0;
nodes = (
"51 492 LINE",
"119 420 OFFCURVE",
"160 199 OFFCURVE",
"254 39 CURVE",
"320 218 OFFCURVE",
"399 364 OFFCURVE",
"510 508 CURVE SMOOTH"
);
}
);
};
backgroundImage = {
crop = "{{0, 0}, {930, 210}}";
imagePath = "Images/h.001.glif-Regular.tif";
locked = "1";
transform = "{8.582, 0, 0, 8.582, -1959, -603}";
};
layerId = "DC44E50C-9AA1-421C-802C-D4D023281425";
paths = (
{
closed = 1;
nodes = (
"221 13 OFFCURVE",
"246 -7 OFFCURVE",
"259 -7 CURVE SMOOTH",
"276 -7 OFFCURVE",
"306 8 OFFCURVE",
"316 34 CURVE SMOOTH",
"382 222 OFFCURVE",
"446 327 OFFCURVE",
"557 471 CURVE SMOOTH",
"565 481 OFFCURVE",
"570 494 OFFCURVE",
"570 508 CURVE SMOOTH",
"570 541 OFFCURVE",
"543 568 OFFCURVE",
"510 568 CURVE SMOOTH",
"490 568 OFFCURVE",
"473 559 OFFCURVE",
"462 544 CURVE SMOOTH",
"370 424 OFFCURVE",
"297 301 OFFCURVE",
"237 158 CURVE",
"261 160 LINE",
"239 208 OFFCURVE",
"221 259 OFFCURVE",
"203 309 CURVE SMOOTH",
"175 385 OFFCURVE",
"153 454 OFFCURVE",
"109 501 CURVE SMOOTH",
"98 512 OFFCURVE",
"83 520 OFFCURVE",
"65 520 CURVE SMOOTH",
"32 520 OFFCURVE",
"5 493 OFFCURVE",
"5 460 CURVE SMOOTH",
"5 444 OFFCURVE",
"12 429 OFFCURVE",
"22 418 CURVE SMOOTH",
"42 397 OFFCURVE",
"53 368 OFFCURVE",
"90 269 CURVE SMOOTH",
"117 195 OFFCURVE",
"164 101 OFFCURVE",
"209 31 CURVE SMOOTH"
);
}
);
width = 575;
}
);
unicode = 0076;
},
{
glyphname = w;
lastChange = "2020-07-02 22:59:47 +0000";
layers = (
{
background = {
paths = (
{
closed = 0;
nodes = (
"63 439 LINE",
"174 312 OFFCURVE",
"181 69 OFFCURVE",
"267 69 CURVE SMOOTH",
"346 69 OFFCURVE",
"404 337 OFFCURVE",
"480 337 CURVE SMOOTH",
"573 337 OFFCURVE",
"668 78 OFFCURVE",
"803 78 CURVE SMOOTH",
"872 78 OFFCURVE",
"843 370 OFFCURVE",
"923 405 CURVE SMOOTH"
);
}
);
};
backgroundImage = {
crop = "{{0, 0}, {2342, 468}}";
imagePath = "Images/b.glif-Regular.tif";
transform = "{3.442, 0, 0, 3.442, -5124, -626}";
};
layerId = "DC44E50C-9AA1-421C-802C-D4D023281425";
paths = (
{
closed = 1;
nodes = (
"337.777 9 OFFCURVE",
"377.344 75.39 OFFCURVE",
"429.155 177.875 CURVE SMOOTH",
"435.739 190.899 OFFCURVE",
"480.66 277 OFFCURVE",
"480 277 CURVE SMOOTH",
"485.612 277 OFFCURVE",
"509.619 256.624 OFFCURVE",
"564.455 188.029 CURVE SMOOTH",
"620.537 117.874 OFFCURVE",
"700.379 18 OFFCURVE",
"803 18 CURVE SMOOTH",
"883.813 18 OFFCURVE",
"901.148 103.256 OFFCURVE",
"917.545 214.935 CURVE SMOOTH",
"929.744 298.024 OFFCURVE",
"944.673 348.004 OFFCURVE",
"946.975 349.982 CURVE",
"968.179 359.235 OFFCURVE",
"983 380.387 OFFCURVE",
"983 405 CURVE SMOOTH",
"983 438.137 OFFCURVE",
"956.137 465 OFFCURVE",
"923 465 CURVE SMOOTH",
"913.765 465 OFFCURVE",
"905.017 462.913 OFFCURVE",
"897.202 459.186 CURVE SMOOTH",
"833.95 430.257 OFFCURVE",
"816.516 352.914 OFFCURVE",
"798.817 232.366 CURVE SMOOTH",
"790.904 178.473 OFFCURVE",
"779.019 154.952 OFFCURVE",
"775.789 144.868 CURVE",
"748.638 158.219 OFFCURVE",
"714.323 192.736 OFFCURVE",
"658.185 262.959 CURVE SMOOTH",
"589.259 349.18 OFFCURVE",
"544.226 397 OFFCURVE",
"480 397 CURVE SMOOTH",
"410.809 397 OFFCURVE",
"372.3 331.389 OFFCURVE",
"322.062 232.015 CURVE SMOOTH",
"314.39 216.84 OFFCURVE",
"267.86 131.778 OFFCURVE",
"267.005 129.066 CURVE",
"266.582 131.839 OFFCURVE",
"232.924 220.574 OFFCURVE",
"226.32 239.863 CURVE SMOOTH",
"201.14 313.406 OFFCURVE",
"168.179 409.671 OFFCURVE",
"108.424 478.202 CURVE SMOOTH",
"97.421 490.939 OFFCURVE",
"81.152 499 OFFCURVE",
"63 499 CURVE SMOOTH",
"29.863 499 OFFCURVE",
"3 472.137 OFFCURVE",
"3 439 CURVE SMOOTH",
"3 423.833 OFFCURVE",
"8.627 409.981 OFFCURVE",
"17.908 399.417 CURVE SMOOTH",
"62.236 348.642 OFFCURVE",
"87.591 274.589 OFFCURVE",
"112.79 200.992 CURVE SMOOTH",
"153.964 80.737 OFFCURVE",
"186.724 9 OFFCURVE",
"267 9 CURVE SMOOTH"
);
}
);
width = 990;
}
);
unicode = 0077;
},
{
glyphname = x;
lastChange = "2020-07-02 23:00:21 +0000";
layers = (
{
background = {
paths = (
{
closed = 0;
nodes = (
"105 376 LINE",
"211 304 OFFCURVE",
"374 163 OFFCURVE",
"475 54 CURVE SMOOTH"
);
},
{
closed = 0;
nodes = (
"483 423 LINE",
"315 292 OFFCURVE",
"209 80 OFFCURVE",
"203 -113 CURVE SMOOTH"
);
}
);
};
backgroundImage = {
crop = "{{0, 0}, {2342, 468}}";
imagePath = "Images/b.glif-Regular.tif";
locked = "1";
transform = "{3.442, 0, 0, 3.442, -6126, -626}";
};
layerId = "DC44E50C-9AA1-421C-802C-D4D023281425";
paths = (
{
closed = 1;
nodes = (
"467.137 -23 OFFCURVE",
"494 3.863 OFFCURVE",
"494 37 CURVE SMOOTH",
"494 50.726 OFFCURVE",
"489.391 63.376 OFFCURVE",
"481.636 73.486 CURVE SMOOTH",
"391.209 194.273 OFFCURVE",
"240.987 355.195 OFFCURVE",
"137.823 441.748 CURVE SMOOTH",
"127.359 450.637 OFFCURVE",
"113.806 456 OFFCURVE",
"99 456 CURVE SMOOTH",
"65.863 456 OFFCURVE",
"39 429.137 OFFCURVE",
"39 396 CURVE SMOOTH",
"39 377.424 OFFCURVE",
"47.442 360.82 OFFCURVE",
"60.699 349.814 CURVE SMOOTH",
"157.485 268.614 OFFCURVE",
"300.024 115.832 OFFCURVE",
"385.536 1.621 CURVE SMOOTH",
"396.45 -13.305 OFFCURVE",
"414.093 -23 OFFCURVE",
"434 -23 CURVE SMOOTH"
);
},
{
closed = 1;
nodes = (
"176.654 -161 OFFCURVE",
"201.938 -138.012 OFFCURVE",
"205.556 -108.336 CURVE SMOOTH",
"230.114 70.101 OFFCURVE",
"349.965 250.738 OFFCURVE",
"510.981 351.607 CURVE SMOOTH",
"528.373 362.114 OFFCURVE",
"540 381.199 OFFCURVE",
"540 403 CURVE SMOOTH",
"540 436.137 OFFCURVE",
"513.137 463 OFFCURVE",
"480 463 CURVE SMOOTH",
"467.993 463 OFFCURVE",
"456.81 459.473 OFFCURVE",
"447.43 453.398 CURVE SMOOTH",
"257.18 334.276 OFFCURVE",
"116.04 121.068 OFFCURVE",
"86.69 -91.87 CURVE SMOOTH",
"86.236 -94.847 OFFCURVE",
"86 -97.896 OFFCURVE",
"86 -101 CURVE SMOOTH",
"86 -134.137 OFFCURVE",
"112.863 -161 OFFCURVE",
"146 -161 CURVE SMOOTH"
);
}
);
width = 600;
}
);
unicode = 0078;
},
{
glyphname = y;
lastChange = "2020-07-02 23:02:44 +0000";
layers = (
{
background = {
paths = (
{
closed = 0;
nodes = (
"140 457 LINE",
"122 315 OFFCURVE",
"152 203 OFFCURVE",
"233 203 CURVE SMOOTH",
"339 203 OFFCURVE",
"436 294 OFFCURVE",
"452 443 CURVE",
"442 289 OFFCURVE",
"472 213 OFFCURVE",
"472 45 CURVE SMOOTH",
"472 -136 OFFCURVE",
"367 -201 OFFCURVE",
"267 -164 CURVE SMOOTH"
);
}
);
};
backgroundImage = {
crop = "{{0, 0}, {2342, 468}}";
imagePath = "Images/b.glif-Regular.tif";
locked = "1";
transform = "{3.442, 0, 0, 3.442, -6709, -626}";
};
layerId = "DC44E50C-9AA1-421C-802C-D4D023281425";
paths = (
{
closed = 1;
nodes = (
"447.727 -233.984 OFFCURVE",
"532 -121.232 OFFCURVE",
"532 45 CURVE SMOOTH",
"532 124.115 OFFCURVE",
"525.533 184.43 OFFCURVE",
"519.741 238.455 CURVE SMOOTH",
"514.546 286.918 OFFCURVE",
"509.959 329.696 OFFCURVE",
"509.959 381.28 CURVE SMOOTH",
"510 436 OFFCURVE",
"494 462 OFFCURVE",
"448 462 CURVE SMOOTH",
"413 462 OFFCURVE",
"396 442 OFFCURVE",
"380.826 393.367 CURVE SMOOTH",
"355.94 314.094 OFFCURVE",
"299.032 263 OFFCURVE",
"233 263 CURVE SMOOTH",
"213.91 263 OFFCURVE",
"194.957 304.92 OFFCURVE",
"194.957 381.246 CURVE SMOOTH",
"194.957 402.29 OFFCURVE",
"196.454 424.97 OFFCURVE",
"199.415 448.587 CURVE SMOOTH",
"199.801 451.336 OFFCURVE",
"200 454.145 OFFCURVE",
"200 457 CURVE SMOOTH",
"200 490.137 OFFCURVE",
"173.137 517 OFFCURVE",
"140 517 CURVE SMOOTH",
"109.14 517 OFFCURVE",
"83.722 493.702 OFFCURVE",
"80.374 463.736 CURVE SMOOTH",
"76.775 435.094 OFFCURVE",
"74.957 407.48 OFFCURVE",
"74.957 381.246 CURVE SMOOTH",
"74.957 242.012 OFFCURVE",
"129.346 143 OFFCURVE",
"233 143 CURVE SMOOTH",
"297.01 143 OFFCURVE",
"355.42 167.137 OFFCURVE",
"402.216 208.882 CURVE",
"407.351 160.28 OFFCURVE",
"412 110.182 OFFCURVE",
"412 45 CURVE SMOOTH",
"412 -55.799 OFFCURVE",
"374.72 -113.984 OFFCURVE",
"320.6 -113.984 CURVE SMOOTH",
"309.413 -113.984 OFFCURVE",
"300.718 -112.402 OFFCURVE",
"288.916 -108.129 CURVE SMOOTH",
"282.127 -105.464 OFFCURVE",
"274.734 -104 OFFCURVE",
"267 -104 CURVE SMOOTH",
"233.863 -104 OFFCURVE",
"207 -130.863 OFFCURVE",
"207 -164 CURVE SMOOTH",
"207 -190.411 OFFCURVE",
"224.065 -212.837 OFFCURVE",
"247.771 -220.852 CURVE SMOOTH",
"270.865 -229.175 OFFCURVE",
"297.451 -233.984 OFFCURVE",
"320.6 -233.984 CURVE SMOOTH"
);
}
);
width = 600;
}
);
unicode = 0079;
},
{
glyphname = z;
lastChange = "2020-07-02 23:01:23 +0000";
layers = (
{
background = {
paths = (
{
closed = 0;
nodes = (
"68 370 LINE",
"139 410 OFFCURVE",
"234 441 OFFCURVE",
"311 441 CURVE SMOOTH",
"429 441 OFFCURVE",
"468 414 OFFCURVE",
"468 360 CURVE SMOOTH",
"468 307 OFFCURVE",
"350 175 OFFCURVE",
"133 89 CURVE",
"124 40 OFFCURVE",
"152 -15 OFFCURVE",
"236 -15 CURVE SMOOTH",
"334 -15 OFFCURVE",
"457 24 OFFCURVE",
"540 26 CURVE SMOOTH"
);
}
);
};
backgroundImage = {
crop = "{{0, 0}, {2342, 468}}";
imagePath = "Images/b.glif-Regular.tif";
locked = "1";
transform = "{3.442, 0, 0, 3.442, -7297, -626}";
};
layerId = "DC44E50C-9AA1-421C-802C-D4D023281425";
paths = (
{
closed = 1;
nodes = (
"294 -55 OFFCURVE",
"360 -43 OFFCURVE",
"417 -32 CURVE SMOOTH",
"466 -23 OFFCURVE",
"508 -15 OFFCURVE",
"541 -14 CURVE SMOOTH",
"574 -13 OFFCURVE",
"600 13 OFFCURVE",
"600 46 CURVE SMOOTH",
"600 79 OFFCURVE",
"573 106 OFFCURVE",
"540 106 CURVE SMOOTH",
"540 106 OFFCURVE",
"539 106 OFFCURVE",
"539 106 CURVE SMOOTH",
"495 105 OFFCURVE",
"444 95 OFFCURVE",
"395 86 CURVE SMOOTH",
"338 75 OFFCURVE",
"283 65 OFFCURVE",
"236 65 CURVE SMOOTH",
"219 65 OFFCURVE",
"208 68 OFFCURVE",
"201 73 CURVE",
"375 152 OFFCURVE",
"528 282 OFFCURVE",
"528 380 CURVE SMOOTH",
"528 481 OFFCURVE",
"448 521 OFFCURVE",
"311 521 CURVE SMOOTH",
"231 521 OFFCURVE",
"124 490 OFFCURVE",
"40 443 CURVE SMOOTH",
"21 433 OFFCURVE",
"8 413 OFFCURVE",
"8 390 CURVE SMOOTH",
"8 357 OFFCURVE",
"35 330 OFFCURVE",
"68 330 CURVE SMOOTH",
"79 330 OFFCURVE",
"89 333 OFFCURVE",
"98 338 CURVE SMOOTH",
"168 377 OFFCURVE",
"249 401 OFFCURVE",
"311 401 CURVE SMOOTH",
"396 401 OFFCURVE",
"408 391 OFFCURVE",
"408 380 CURVE SMOOTH",
"408 345 OFFCURVE",
"277 241 OFFCURVE",
"148 181 CURVE SMOOTH",
"84 150 OFFCURVE",
"71 120 OFFCURVE",
"71 91 CURVE SMOOTH",
"71 4 OFFCURVE",
"141 -55 OFFCURVE",
"236 -55 CURVE SMOOTH"
);
}
);
width = 600;
}
);
unicode = 007A;
},
{
glyphname = nine;
lastChange = "2020-07-03 20:12:55 +0000";
layers = (
{
layerId = "DC44E50C-9AA1-421C-802C-D4D023281425";
paths = (
{
closed = 1;
nodes = (
"677.235 -98.976 OFFCURVE",
"717.431 -91 OFFCURVE",
"730.795 -46.945 CURVE SMOOTH",
"763.799 61.893 OFFCURVE",
"775.431 206.97 OFFCURVE",
"786.315 342.735 CURVE SMOOTH",
"796.348 467.877 OFFCURVE",
"805.697 584.488 OFFCURVE",
"829.359 668.341 CURVE SMOOTH",
"831.076 673.924 OFFCURVE",
"832 679.854 OFFCURVE",
"832 686 CURVE SMOOTH",
"832 719.137 OFFCURVE",
"805.137 746 OFFCURVE",
"772 746 CURVE SMOOTH",
"744.087 746 OFFCURVE",
"720.626 726.94 OFFCURVE",
"713.923 701.124 CURVE SMOOTH",
"687.027 605.88 OFFCURVE",
"676.735 477.496 OFFCURVE",
"666.699 352.325 CURVE SMOOTH",
"661.802 291.239 OFFCURVE",
"656.954 230.77 OFFCURVE",
"650.39 173.812 CURVE",
"619.909 248.035 OFFCURVE",
"597.792 326.73 OFFCURVE",
"578.094 396.817 CURVE SMOOTH",
"541.284 527.788 OFFCURVE",
"515.87 621 OFFCURVE",
"436 621 CURVE SMOOTH",
"344.021 621 OFFCURVE",
"274.249 453.87 OFFCURVE",
"221.195 235.424 CURVE",
"184.355 384.618 OFFCURVE",
"161.497 546.099 OFFCURVE",
"158.991 687.066 CURVE SMOOTH",
"158.422 719.711 OFFCURVE",
"131.781 746 OFFCURVE",
"99 746 CURVE SMOOTH",
"65.863 746 OFFCURVE",
"39 719.137 OFFCURVE",
"39 686 CURVE SMOOTH",
"39 685.644 OFFCURVE",
"39.003 685.289 OFFCURVE",
"39.009 684.934 CURVE SMOOTH",
"42.711 476.687 OFFCURVE",
"89.139 222.841 OFFCURVE",
"158.779 23.872 CURVE SMOOTH",
"170.558 -9.954 OFFCURVE",
"194.306 -24.062 OFFCURVE",
"229.948 -20.577 CURVE SMOOTH",
"239.821 -19.612 LINE SMOOTH",
"275.165 -16.156 OFFCURVE",
"294.865 2.27 OFFCURVE",
"302.019 37.38 CURVE SMOOTH",
"336.934 208.218 OFFCURVE",
"397.471 408.641 OFFCURVE",
"423.945 476.866 CURVE",
"432.406 457.376 OFFCURVE",
"445.994 423.328 OFFCURVE",
"462.57 364.349 CURVE SMOOTH",
"498.009 238.256 OFFCURVE",
"547.861 60.877 OFFCURVE",
"648.009 -62.793 CURVE SMOOTH"
);
}
);
width = 600;
}
);
unicode = 0039;
},
{
glyphname = period;
lastChange = "2020-07-01 02:53:46 +0000";
layers = (
{
layerId = "DC44E50C-9AA1-421C-802C-D4D023281425";
paths = (
{
closed = 1;
nodes = (
"214 -13 OFFCURVE",
"232 7 OFFCURVE",
"232 25 CURVE SMOOTH",
"232 85 OFFCURVE",
"190 158 OFFCURVE",
"121 158 CURVE SMOOTH",
"82 158 OFFCURVE",
"50 131 OFFCURVE",
"50 95 CURVE SMOOTH",
"50 40 OFFCURVE",
"103 -13 OFFCURVE",
"166 -13 CURVE SMOOTH"
);
}
);
width = 287;
}
);
unicode = 002E;
},
{
glyphname = comma;
lastChange = "2020-07-01 02:54:47 +0000";
layers = (
{
background = {
paths = (
{
closed = 0;
nodes = (
"149 115 LINE",
"145 47 OFFCURVE",
"120 -25 OFFCURVE",
"95 -67 CURVE SMOOTH"
);
}
);
};
backgroundImage = {
crop = "{{0, 0}, {153, 185}}";
imagePath = "Images/comma.glif-Regular.tif";
transform = "{2.42517, 0, 0, 2.42517, -24, -213}";
};
layerId = "DC44E50C-9AA1-421C-802C-D4D023281425";
paths = (
{
closed = 1;
nodes = (
"117 -127 OFFCURVE",
"137 -115 OFFCURVE",
"147 -97 CURVE SMOOTH",
"180 -42 OFFCURVE",
"205 43 OFFCURVE",
"209 111 CURVE SMOOTH",
"209 112 OFFCURVE",
"209 114 OFFCURVE",
"209 115 CURVE SMOOTH",
"209 148 OFFCURVE",
"182 175 OFFCURVE",
"149 175 CURVE SMOOTH",
"117 175 OFFCURVE",
"91 150 OFFCURVE",
"89 118 CURVE SMOOTH",
"86 66 OFFCURVE",
"68 6 OFFCURVE",
"44 -36 CURVE SMOOTH",
"38 -45 OFFCURVE",
"35 -55 OFFCURVE",
"35 -67 CURVE SMOOTH",
"35 -100 OFFCURVE",
"62 -127 OFFCURVE",
"95 -127 CURVE SMOOTH"
);
}
);
width = 259;
}
);
unicode = 002C;
},
{
glyphname = hyphen;
lastChange = "2020-07-01 02:55:28 +0000";
layers = (
{
layerId = "DC44E50C-9AA1-421C-802C-D4D023281425";
paths = (
{
closed = 1;
nodes = (
"197 215 OFFCURVE",
"272 239 OFFCURVE",
"365 245 CURVE SMOOTH",
"396 247 OFFCURVE",
"421 273 OFFCURVE",
"421 305 CURVE SMOOTH",
"421 338 OFFCURVE",
"394 365 OFFCURVE",
"361 365 CURVE SMOOTH",
"296 365 OFFCURVE",
"186 335 OFFCURVE",
"115 311 CURVE SMOOTH",
"58 287 OFFCURVE",
"50 263 OFFCURVE",
"50 230 CURVE SMOOTH",
"50 194 OFFCURVE",
"87 173 OFFCURVE",
"128 189 CURVE SMOOTH"
);
}
);
width = 471;
}
);
unicode = 002D;
},
{
glyphname = space;
lastChange = "2020-07-02 23:00:20 +0000";
layers = (
{
layerId = "DC44E50C-9AA1-421C-802C-D4D023281425";
paths = (
{
closed = 1;
nodes = (
"177 -161 OFFCURVE",
"202 -138 OFFCURVE",
"206 -108 CURVE SMOOTH",
"230 70 OFFCURVE",
"350 251 OFFCURVE",
"511 352 CURVE SMOOTH",
"528 362 OFFCURVE",
"540 381 OFFCURVE",
"540 403 CURVE SMOOTH",
"540 436 OFFCURVE",
"513 463 OFFCURVE",
"480 463 CURVE SMOOTH",
"468 463 OFFCURVE",
"457 459 OFFCURVE",
"447 453 CURVE SMOOTH",
"257 334 OFFCURVE",
"116 121 OFFCURVE",
"87 -92 CURVE SMOOTH",
"86 -95 OFFCURVE",
"86 -98 OFFCURVE",
"86 -101 CURVE SMOOTH",
"86 -134 OFFCURVE",
"113 -161 OFFCURVE",
"146 -161 CURVE SMOOTH"
);
}
